G75*
%MOIN*%
%OFA0B0*%
%FSLAX24Y24*%
%IPPOS*%
%LPD*%
%AMOC8*
5,1,8,0,0,1.08239X$1,22.5*
%
%ADD10C,0.0100*%
%ADD11C,0.0030*%
%ADD12C,0.0000*%
%ADD13C,0.0050*%
%ADD14C,0.0020*%
%ADD15R,0.7677X0.4134*%
%ADD16C,0.0060*%
%ADD17C,0.0080*%
%ADD18R,0.0118X0.0787*%
%ADD19R,0.0787X0.0118*%
%ADD20C,0.0039*%
%ADD21C,0.0079*%
%ADD22C,0.0040*%
%ADD23R,0.0492X0.2441*%
%ADD24R,0.2441X0.0492*%
%ADD25R,0.1100X0.0148*%
D10*
X003196Y002570D02*
X003196Y009755D01*
X007034Y009755D01*
X007034Y015365D01*
X003196Y015365D01*
X003196Y024617D01*
X037448Y024617D01*
X037448Y002570D01*
X020834Y002570D01*
X020834Y007511D01*
X016582Y007511D01*
X016582Y002570D01*
X003196Y002570D01*
X008727Y003495D02*
X008727Y004342D01*
X008964Y004342D01*
X009633Y004342D02*
X009869Y004342D01*
X009869Y003495D01*
X013058Y003495D02*
X013058Y004342D01*
X013294Y004342D01*
X013964Y004342D02*
X014200Y004342D01*
X014200Y003495D01*
X014593Y024051D02*
X014629Y024090D01*
X014668Y024128D01*
X014708Y024162D01*
X014751Y024194D01*
X014796Y024222D01*
X014843Y024248D01*
X014892Y024271D01*
X014942Y024290D01*
X014993Y024306D01*
X015045Y024318D01*
X015097Y024327D01*
X015151Y024332D01*
X015204Y024334D01*
X015910Y023158D02*
X015883Y023111D01*
X015853Y023066D01*
X015820Y023023D01*
X015784Y022983D01*
X015745Y022945D01*
X015704Y022910D01*
X015661Y022877D01*
X015616Y022848D01*
X015568Y022822D01*
X015519Y022799D01*
X015469Y022779D01*
X015418Y022763D01*
X015365Y022750D01*
X015312Y022741D01*
X015258Y022736D01*
X015204Y022734D01*
X015899Y023931D02*
X015869Y023979D01*
X015836Y024024D01*
X015800Y024067D01*
X015762Y024108D01*
X015720Y024145D01*
X015676Y024180D01*
X015630Y024211D01*
X015581Y024240D01*
X015531Y024264D01*
X015479Y024285D01*
X015425Y024303D01*
X015371Y024316D01*
X015316Y024326D01*
X015260Y024332D01*
X015204Y024334D01*
X014589Y023022D02*
X014625Y022982D01*
X014664Y022944D01*
X014705Y022909D01*
X014748Y022877D01*
X014793Y022847D01*
X014840Y022821D01*
X014889Y022799D01*
X014940Y022779D01*
X014991Y022763D01*
X015043Y022750D01*
X015097Y022741D01*
X015150Y022736D01*
X015204Y022734D01*
X019824Y023137D02*
X019854Y023089D01*
X019887Y023044D01*
X019923Y023001D01*
X019961Y022960D01*
X020003Y022923D01*
X020047Y022888D01*
X020093Y022857D01*
X020142Y022828D01*
X020192Y022804D01*
X020244Y022783D01*
X020298Y022765D01*
X020352Y022752D01*
X020407Y022742D01*
X020463Y022736D01*
X020519Y022734D01*
X019813Y023910D02*
X019840Y023957D01*
X019870Y024002D01*
X019903Y024045D01*
X019939Y024085D01*
X019978Y024123D01*
X020019Y024158D01*
X020062Y024191D01*
X020107Y024220D01*
X020155Y024246D01*
X020204Y024269D01*
X020254Y024289D01*
X020305Y024305D01*
X020358Y024318D01*
X020411Y024327D01*
X020465Y024332D01*
X020519Y024334D01*
X021130Y023017D02*
X021094Y022978D01*
X021055Y022940D01*
X021015Y022906D01*
X020972Y022874D01*
X020927Y022846D01*
X020880Y022820D01*
X020831Y022797D01*
X020781Y022778D01*
X020730Y022762D01*
X020678Y022750D01*
X020626Y022741D01*
X020572Y022736D01*
X020519Y022734D01*
X021134Y024046D02*
X021098Y024086D01*
X021059Y024124D01*
X021018Y024159D01*
X020975Y024191D01*
X020930Y024221D01*
X020883Y024247D01*
X020834Y024269D01*
X020783Y024289D01*
X020732Y024305D01*
X020680Y024318D01*
X020626Y024327D01*
X020573Y024332D01*
X020519Y024334D01*
D11*
X023157Y023074D02*
X023157Y022789D01*
X023157Y022884D02*
X023300Y022884D01*
X023347Y022932D01*
X023347Y023027D01*
X023300Y023074D01*
X023157Y023074D01*
X023252Y022884D02*
X023347Y022789D01*
X023447Y022789D02*
X023637Y022789D01*
X023737Y022837D02*
X023785Y022789D01*
X023880Y022789D01*
X023927Y022837D01*
X023927Y022884D01*
X023880Y022932D01*
X023785Y022932D01*
X023737Y022979D01*
X023737Y023027D01*
X023785Y023074D01*
X023880Y023074D01*
X023927Y023027D01*
X024027Y023074D02*
X024027Y022789D01*
X024217Y022789D01*
X024122Y022932D02*
X024027Y022932D01*
X024027Y023074D02*
X024217Y023074D01*
X024317Y023074D02*
X024507Y023074D01*
X024412Y023074D02*
X024412Y022789D01*
X023637Y023074D02*
X023447Y023074D01*
X023447Y022789D01*
X023447Y022932D02*
X023542Y022932D01*
X026550Y022981D02*
X026835Y022981D01*
X026550Y022791D01*
X026835Y022791D01*
X026787Y022691D02*
X026692Y022691D01*
X026692Y022596D01*
X026597Y022691D02*
X026550Y022644D01*
X026550Y022548D01*
X026597Y022501D01*
X026787Y022501D01*
X026835Y022548D01*
X026835Y022644D01*
X026787Y022691D01*
X026835Y023081D02*
X026835Y023224D01*
X026787Y023271D01*
X026597Y023271D01*
X026550Y023224D01*
X026550Y023081D01*
X026835Y023081D01*
X027564Y023034D02*
X027849Y023034D01*
X027849Y023229D02*
X027659Y023419D01*
X027611Y023419D01*
X027564Y023371D01*
X027564Y023276D01*
X027611Y023229D01*
X027564Y023129D02*
X027564Y022939D01*
X027564Y022839D02*
X027801Y022839D01*
X027849Y022791D01*
X027849Y022696D01*
X027801Y022649D01*
X027564Y022649D01*
X027611Y022549D02*
X027564Y022501D01*
X027564Y022406D01*
X027611Y022359D01*
X027801Y022359D01*
X027849Y022406D01*
X027849Y022501D01*
X027801Y022549D01*
X027611Y022549D01*
X027849Y023229D02*
X027849Y023419D01*
X028597Y023373D02*
X028882Y023373D01*
X028882Y023278D02*
X028882Y023468D01*
X028692Y023278D02*
X028597Y023373D01*
X028597Y023178D02*
X028597Y022988D01*
X028597Y023083D02*
X028882Y023083D01*
X028835Y022888D02*
X028597Y022888D01*
X028597Y022698D02*
X028835Y022698D01*
X028882Y022745D01*
X028882Y022840D01*
X028835Y022888D01*
X028835Y022598D02*
X028645Y022598D01*
X028597Y022550D01*
X028597Y022455D01*
X028645Y022408D01*
X028835Y022408D01*
X028882Y022455D01*
X028882Y022550D01*
X028835Y022598D01*
X029456Y023132D02*
X029503Y023084D01*
X029598Y023084D01*
X029646Y023132D01*
X029646Y023227D01*
X029551Y023227D01*
X029646Y023322D02*
X029598Y023370D01*
X029503Y023370D01*
X029456Y023322D01*
X029456Y023132D01*
X029746Y023084D02*
X029746Y023370D01*
X029936Y023084D01*
X029936Y023370D01*
X030036Y023370D02*
X030178Y023370D01*
X030226Y023322D01*
X030226Y023132D01*
X030178Y023084D01*
X030036Y023084D01*
X030036Y023370D01*
X033334Y023352D02*
X033334Y023161D01*
X033381Y023114D01*
X033476Y023114D01*
X033524Y023161D01*
X033624Y023114D02*
X033624Y023399D01*
X033524Y023352D02*
X033476Y023399D01*
X033381Y023399D01*
X033334Y023352D01*
X033624Y023256D02*
X033814Y023256D01*
X033914Y023161D02*
X033961Y023114D01*
X034056Y023114D01*
X034104Y023161D01*
X034104Y023209D01*
X034056Y023256D01*
X034009Y023256D01*
X034056Y023256D02*
X034104Y023304D01*
X034104Y023352D01*
X034056Y023399D01*
X033961Y023399D01*
X033914Y023352D01*
X033814Y023399D02*
X033814Y023114D01*
X034357Y023174D02*
X034357Y022984D01*
X034405Y022937D01*
X034500Y022937D01*
X034547Y022984D01*
X034647Y022937D02*
X034647Y023222D01*
X034547Y023174D02*
X034500Y023222D01*
X034405Y023222D01*
X034357Y023174D01*
X034647Y023079D02*
X034837Y023079D01*
X034937Y023174D02*
X034985Y023222D01*
X035080Y023222D01*
X035127Y023174D01*
X035127Y023127D01*
X034937Y022937D01*
X035127Y022937D01*
X035332Y022994D02*
X035379Y022947D01*
X035474Y022947D01*
X035522Y022994D01*
X035622Y022947D02*
X035622Y023232D01*
X035522Y023184D02*
X035474Y023232D01*
X035379Y023232D01*
X035332Y023184D01*
X035332Y022994D01*
X035622Y023089D02*
X035812Y023089D01*
X035912Y023137D02*
X036007Y023232D01*
X036007Y022947D01*
X035912Y022947D02*
X036102Y022947D01*
X036296Y023014D02*
X036344Y022966D01*
X036439Y022966D01*
X036486Y023014D01*
X036586Y022966D02*
X036586Y023251D01*
X036486Y023204D02*
X036439Y023251D01*
X036344Y023251D01*
X036296Y023204D01*
X036296Y023014D01*
X036586Y023109D02*
X036776Y023109D01*
X036876Y023204D02*
X036924Y023251D01*
X037019Y023251D01*
X037066Y023204D01*
X036876Y023014D01*
X036924Y022966D01*
X037019Y022966D01*
X037066Y023014D01*
X037066Y023204D01*
X036876Y023204D02*
X036876Y023014D01*
X036776Y022966D02*
X036776Y023251D01*
X035812Y023232D02*
X035812Y022947D01*
X034837Y022937D02*
X034837Y023222D01*
X034001Y020868D02*
X033837Y020868D01*
X033837Y020746D01*
X033919Y020787D01*
X033960Y020787D01*
X034001Y020746D01*
X034001Y020664D01*
X033960Y020623D01*
X033878Y020623D01*
X033837Y020664D01*
X033747Y020623D02*
X033583Y020623D01*
X033747Y020787D01*
X033747Y020828D01*
X033706Y020868D01*
X033624Y020868D01*
X033583Y020828D01*
X033493Y020828D02*
X033452Y020868D01*
X033370Y020868D01*
X033329Y020828D01*
X033329Y020664D01*
X033370Y020623D01*
X033452Y020623D01*
X033493Y020664D01*
X022497Y007115D02*
X022497Y006751D01*
X022254Y007115D01*
X022254Y006751D01*
X022134Y006751D02*
X022134Y006993D01*
X022013Y007115D01*
X021892Y006993D01*
X021892Y006751D01*
X021892Y006933D02*
X022134Y006933D01*
X021772Y007115D02*
X021529Y007115D01*
X021529Y006751D01*
X021529Y006933D02*
X021650Y006933D01*
X021597Y006239D02*
X021740Y006239D01*
X021787Y006191D01*
X021787Y006001D01*
X021740Y005954D01*
X021597Y005954D01*
X021597Y006239D01*
X021497Y006239D02*
X021497Y005954D01*
X021307Y006239D01*
X021307Y005954D01*
X021207Y006001D02*
X021207Y006096D01*
X021112Y006096D01*
X021017Y006001D02*
X021065Y005954D01*
X021160Y005954D01*
X021207Y006001D01*
X021017Y006001D02*
X021017Y006191D01*
X021065Y006239D01*
X021160Y006239D01*
X021207Y006191D01*
X022267Y006116D02*
X022457Y006116D01*
X022557Y006116D02*
X022652Y006163D01*
X022700Y006163D01*
X022747Y006116D01*
X022747Y006021D01*
X022700Y005973D01*
X022605Y005973D01*
X022557Y006021D01*
X022557Y006116D02*
X022557Y006258D01*
X022747Y006258D01*
X022847Y006258D02*
X022847Y006068D01*
X022942Y005973D01*
X023037Y006068D01*
X023037Y006258D01*
X022362Y006211D02*
X022362Y006021D01*
X009940Y006073D02*
X009940Y006194D01*
X009879Y006255D01*
X009637Y006255D01*
X009576Y006194D01*
X009576Y006073D01*
X009637Y006012D01*
X009879Y006012D01*
X009940Y006073D01*
X009940Y005892D02*
X009940Y005770D01*
X009940Y005831D02*
X009576Y005831D01*
X009576Y005770D02*
X009576Y005892D01*
X009637Y005650D02*
X009576Y005590D01*
X009576Y005408D01*
X009940Y005408D01*
X009940Y005590D01*
X009879Y005650D01*
X009637Y005650D01*
X009576Y005288D02*
X009879Y005288D01*
X009940Y005227D01*
X009940Y005106D01*
X009879Y005045D01*
X009576Y005045D01*
X009697Y004925D02*
X009940Y004925D01*
X009758Y004925D02*
X009758Y004683D01*
X009697Y004683D02*
X009576Y004804D01*
X009697Y004925D01*
X009697Y004683D02*
X009940Y004683D01*
X009940Y006737D02*
X009940Y006858D01*
X009940Y006798D02*
X009576Y006798D01*
X009576Y006858D02*
X009576Y006737D01*
X009576Y006979D02*
X009940Y007221D01*
X009576Y007221D01*
X009576Y006979D02*
X009940Y006979D01*
X007776Y006662D02*
X007534Y006662D01*
X007414Y006662D02*
X007414Y006298D01*
X007414Y006480D02*
X007171Y006480D01*
X007051Y006480D02*
X006930Y006480D01*
X007051Y006480D02*
X007051Y006359D01*
X006991Y006298D01*
X006869Y006298D01*
X006809Y006359D01*
X006809Y006601D01*
X006869Y006662D01*
X006991Y006662D01*
X007051Y006601D01*
X007171Y006662D02*
X007171Y006298D01*
X006688Y006298D02*
X006567Y006298D01*
X006628Y006298D02*
X006628Y006662D01*
X006688Y006662D02*
X006567Y006662D01*
X006447Y006601D02*
X006447Y006480D01*
X006386Y006419D01*
X006204Y006419D01*
X006204Y006298D02*
X006204Y006662D01*
X006386Y006662D01*
X006447Y006601D01*
X006326Y006419D02*
X006447Y006298D01*
X007655Y006298D02*
X007655Y006662D01*
X005231Y006672D02*
X004989Y006672D01*
X004869Y006672D02*
X004626Y006672D01*
X004626Y006308D01*
X004506Y006308D02*
X004264Y006308D01*
X004264Y006672D01*
X004506Y006672D01*
X004626Y006490D02*
X004748Y006490D01*
X004385Y006490D02*
X004264Y006490D01*
X004144Y006308D02*
X003901Y006308D01*
X003901Y006672D01*
X005110Y006672D02*
X005110Y006308D01*
X005287Y018729D02*
X005477Y018729D01*
X005577Y018729D02*
X005672Y018729D01*
X005624Y018729D02*
X005624Y019014D01*
X005577Y019014D02*
X005672Y019014D01*
X005770Y019014D02*
X005960Y019014D01*
X006060Y018967D02*
X006060Y018777D01*
X006108Y018729D01*
X006203Y018729D01*
X006250Y018777D01*
X006250Y018967D01*
X006203Y019014D01*
X006108Y019014D01*
X006060Y018967D01*
X005865Y018872D02*
X005770Y018872D01*
X005770Y019014D02*
X005770Y018729D01*
X005287Y018729D02*
X005287Y019014D01*
X004897Y018729D02*
X004707Y018729D01*
X004707Y019014D01*
X004417Y019014D02*
X004417Y018729D01*
X004607Y018729D01*
X004317Y018729D02*
X004127Y018729D01*
X004127Y019014D01*
X004317Y019014D01*
X004222Y018872D02*
X004127Y018872D01*
X004027Y018967D02*
X003979Y019014D01*
X003884Y019014D01*
X003837Y018967D01*
X003837Y018777D01*
X003884Y018729D01*
X003979Y018729D01*
X004027Y018777D01*
X003737Y018729D02*
X003547Y018729D01*
X003642Y018729D02*
X003642Y019014D01*
X003547Y018919D01*
X003591Y019910D02*
X003639Y019958D01*
X003639Y020148D01*
X003591Y020195D01*
X003448Y020195D01*
X003448Y019910D01*
X003591Y019910D01*
X003738Y019958D02*
X003786Y019910D01*
X003881Y019910D01*
X003929Y019958D01*
X004028Y019958D02*
X004076Y019910D01*
X004171Y019910D01*
X004219Y019958D01*
X004219Y020005D01*
X004171Y020053D01*
X004028Y020053D01*
X004028Y019958D01*
X004028Y020053D02*
X004124Y020148D01*
X004219Y020195D01*
X004318Y020195D02*
X004318Y020005D01*
X004414Y019910D01*
X004509Y020005D01*
X004509Y020195D01*
X004608Y020195D02*
X004656Y020243D01*
X004751Y020148D01*
X004799Y020195D01*
X004898Y020148D02*
X004946Y020195D01*
X005041Y020195D01*
X005089Y020148D01*
X005089Y020100D01*
X005041Y020053D01*
X005089Y020005D01*
X005089Y019958D01*
X005041Y019910D01*
X004946Y019910D01*
X004898Y019958D01*
X004994Y020053D02*
X005041Y020053D01*
X005188Y020148D02*
X005236Y020195D01*
X005331Y020195D01*
X005379Y020148D01*
X005188Y019958D01*
X005236Y019910D01*
X005331Y019910D01*
X005379Y019958D01*
X005379Y020148D01*
X005479Y020195D02*
X005479Y020005D01*
X005574Y019910D01*
X005669Y020005D01*
X005669Y020195D01*
X006059Y020195D02*
X006154Y020195D01*
X006106Y020195D02*
X006106Y019910D01*
X006059Y019910D02*
X006154Y019910D01*
X006252Y019910D02*
X006252Y020195D01*
X006442Y019910D01*
X006442Y020195D01*
X006640Y019014D02*
X006783Y019014D01*
X006830Y018967D01*
X006830Y018919D01*
X006783Y018872D01*
X006640Y018872D01*
X006640Y019014D02*
X006640Y018729D01*
X006783Y018729D01*
X006830Y018777D01*
X006830Y018824D01*
X006783Y018872D01*
X006930Y018872D02*
X007120Y018872D01*
X007120Y018919D02*
X007120Y018729D01*
X006930Y018729D02*
X006930Y018919D01*
X007025Y019014D01*
X007120Y018919D01*
X007220Y019014D02*
X007410Y019014D01*
X007315Y019014D02*
X007315Y018729D01*
X005188Y019958D02*
X005188Y020148D01*
X003929Y020148D02*
X003881Y020195D01*
X003786Y020195D01*
X003738Y020148D01*
X003738Y019958D01*
X016815Y020737D02*
X016815Y021022D01*
X016957Y021022D01*
X017005Y020975D01*
X017005Y020880D01*
X016957Y020832D01*
X016815Y020832D01*
X017105Y020785D02*
X017152Y020737D01*
X017247Y020737D01*
X017295Y020785D01*
X017295Y020975D01*
X017247Y021022D01*
X017152Y021022D01*
X017105Y020975D01*
X017105Y020785D01*
X017395Y020737D02*
X017395Y021022D01*
X017585Y021022D02*
X017585Y020737D01*
X017490Y020832D01*
X017395Y020737D01*
X017685Y020737D02*
X017685Y021022D01*
X017875Y021022D01*
X017975Y021022D02*
X017975Y020737D01*
X017975Y020832D02*
X018117Y020832D01*
X018165Y020880D01*
X018165Y020975D01*
X018117Y021022D01*
X017975Y021022D01*
X018070Y020832D02*
X018165Y020737D01*
X017875Y020737D02*
X017685Y020737D01*
X017685Y020880D02*
X017780Y020880D01*
X018555Y020927D02*
X018602Y020880D01*
X018697Y020880D01*
X018745Y020832D01*
X018745Y020785D01*
X018697Y020737D01*
X018602Y020737D01*
X018555Y020785D01*
X018555Y020927D02*
X018555Y020975D01*
X018602Y021022D01*
X018697Y021022D01*
X018745Y020975D01*
X018845Y020737D02*
X019035Y021022D01*
X019135Y021022D02*
X019135Y020737D01*
X019230Y020832D01*
X019325Y020737D01*
X019325Y021022D01*
X035958Y005837D02*
X035958Y005789D01*
X036006Y005742D01*
X036101Y005742D01*
X036148Y005694D01*
X036148Y005647D01*
X036101Y005599D01*
X036006Y005599D01*
X035958Y005647D01*
X035958Y005837D02*
X036006Y005884D01*
X036101Y005884D01*
X036148Y005837D01*
X036248Y005884D02*
X036248Y005599D01*
X036343Y005694D01*
X036438Y005599D01*
X036438Y005884D01*
D12*
X036769Y004784D02*
X036771Y004810D01*
X036777Y004836D01*
X036787Y004861D01*
X036800Y004884D01*
X036816Y004904D01*
X036836Y004922D01*
X036858Y004937D01*
X036881Y004949D01*
X036907Y004957D01*
X036933Y004961D01*
X036959Y004961D01*
X036985Y004957D01*
X037011Y004949D01*
X037035Y004937D01*
X037056Y004922D01*
X037076Y004904D01*
X037092Y004884D01*
X037105Y004861D01*
X037115Y004836D01*
X037121Y004810D01*
X037123Y004784D01*
X037121Y004758D01*
X037115Y004732D01*
X037105Y004707D01*
X037092Y004684D01*
X037076Y004664D01*
X037056Y004646D01*
X037034Y004631D01*
X037011Y004619D01*
X036985Y004611D01*
X036959Y004607D01*
X036933Y004607D01*
X036907Y004611D01*
X036881Y004619D01*
X036857Y004631D01*
X036836Y004646D01*
X036816Y004664D01*
X036800Y004684D01*
X036787Y004707D01*
X036777Y004732D01*
X036771Y004758D01*
X036769Y004784D01*
X036769Y003918D02*
X036771Y003944D01*
X036777Y003970D01*
X036787Y003995D01*
X036800Y004018D01*
X036816Y004038D01*
X036836Y004056D01*
X036858Y004071D01*
X036881Y004083D01*
X036907Y004091D01*
X036933Y004095D01*
X036959Y004095D01*
X036985Y004091D01*
X037011Y004083D01*
X037035Y004071D01*
X037056Y004056D01*
X037076Y004038D01*
X037092Y004018D01*
X037105Y003995D01*
X037115Y003970D01*
X037121Y003944D01*
X037123Y003918D01*
X037121Y003892D01*
X037115Y003866D01*
X037105Y003841D01*
X037092Y003818D01*
X037076Y003798D01*
X037056Y003780D01*
X037034Y003765D01*
X037011Y003753D01*
X036985Y003745D01*
X036959Y003741D01*
X036933Y003741D01*
X036907Y003745D01*
X036881Y003753D01*
X036857Y003765D01*
X036836Y003780D01*
X036816Y003798D01*
X036800Y003818D01*
X036787Y003841D01*
X036777Y003866D01*
X036771Y003892D01*
X036769Y003918D01*
X026011Y017521D02*
X026013Y017568D01*
X026019Y017615D01*
X026028Y017661D01*
X026042Y017706D01*
X026059Y017750D01*
X026080Y017793D01*
X026104Y017833D01*
X026131Y017872D01*
X026162Y017908D01*
X026195Y017941D01*
X026231Y017972D01*
X026270Y017999D01*
X026310Y018023D01*
X026353Y018044D01*
X026397Y018061D01*
X026442Y018075D01*
X026488Y018084D01*
X026535Y018090D01*
X026582Y018092D01*
X026629Y018090D01*
X026676Y018084D01*
X026722Y018075D01*
X026767Y018061D01*
X026811Y018044D01*
X026854Y018023D01*
X026894Y017999D01*
X026933Y017972D01*
X026969Y017941D01*
X027002Y017908D01*
X027033Y017872D01*
X027060Y017833D01*
X027084Y017793D01*
X027105Y017750D01*
X027122Y017706D01*
X027136Y017661D01*
X027145Y017615D01*
X027151Y017568D01*
X027153Y017521D01*
X027151Y017474D01*
X027145Y017427D01*
X027136Y017381D01*
X027122Y017336D01*
X027105Y017292D01*
X027084Y017249D01*
X027060Y017209D01*
X027033Y017170D01*
X027002Y017134D01*
X026969Y017101D01*
X026933Y017070D01*
X026894Y017043D01*
X026854Y017019D01*
X026811Y016998D01*
X026767Y016981D01*
X026722Y016967D01*
X026676Y016958D01*
X026629Y016952D01*
X026582Y016950D01*
X026535Y016952D01*
X026488Y016958D01*
X026442Y016967D01*
X026397Y016981D01*
X026353Y016998D01*
X026310Y017019D01*
X026270Y017043D01*
X026231Y017070D01*
X026195Y017101D01*
X026162Y017134D01*
X026131Y017170D01*
X026104Y017209D01*
X026080Y017249D01*
X026059Y017292D01*
X026042Y017336D01*
X026028Y017381D01*
X026019Y017427D01*
X026013Y017474D01*
X026011Y017521D01*
X023728Y024027D02*
X023730Y024053D01*
X023736Y024079D01*
X023746Y024104D01*
X023759Y024127D01*
X023775Y024147D01*
X023795Y024165D01*
X023817Y024180D01*
X023840Y024192D01*
X023866Y024200D01*
X023892Y024204D01*
X023918Y024204D01*
X023944Y024200D01*
X023970Y024192D01*
X023994Y024180D01*
X024015Y024165D01*
X024035Y024147D01*
X024051Y024127D01*
X024064Y024104D01*
X024074Y024079D01*
X024080Y024053D01*
X024082Y024027D01*
X024080Y024001D01*
X024074Y023975D01*
X024064Y023950D01*
X024051Y023927D01*
X024035Y023907D01*
X024015Y023889D01*
X023993Y023874D01*
X023970Y023862D01*
X023944Y023854D01*
X023918Y023850D01*
X023892Y023850D01*
X023866Y023854D01*
X023840Y023862D01*
X023816Y023874D01*
X023795Y023889D01*
X023775Y023907D01*
X023759Y023927D01*
X023746Y023950D01*
X023736Y023975D01*
X023730Y024001D01*
X023728Y024027D01*
X022861Y024027D02*
X022863Y024053D01*
X022869Y024079D01*
X022879Y024104D01*
X022892Y024127D01*
X022908Y024147D01*
X022928Y024165D01*
X022950Y024180D01*
X022973Y024192D01*
X022999Y024200D01*
X023025Y024204D01*
X023051Y024204D01*
X023077Y024200D01*
X023103Y024192D01*
X023127Y024180D01*
X023148Y024165D01*
X023168Y024147D01*
X023184Y024127D01*
X023197Y024104D01*
X023207Y024079D01*
X023213Y024053D01*
X023215Y024027D01*
X023213Y024001D01*
X023207Y023975D01*
X023197Y023950D01*
X023184Y023927D01*
X023168Y023907D01*
X023148Y023889D01*
X023126Y023874D01*
X023103Y023862D01*
X023077Y023854D01*
X023051Y023850D01*
X023025Y023850D01*
X022999Y023854D01*
X022973Y023862D01*
X022949Y023874D01*
X022928Y023889D01*
X022908Y023907D01*
X022892Y023927D01*
X022879Y023950D01*
X022869Y023975D01*
X022863Y024001D01*
X022861Y024027D01*
X011030Y005906D02*
X011032Y005941D01*
X011038Y005976D01*
X011048Y006010D01*
X011061Y006043D01*
X011078Y006074D01*
X011099Y006102D01*
X011122Y006129D01*
X011149Y006152D01*
X011177Y006173D01*
X011208Y006190D01*
X011241Y006203D01*
X011275Y006213D01*
X011310Y006219D01*
X011345Y006221D01*
X011380Y006219D01*
X011415Y006213D01*
X011449Y006203D01*
X011482Y006190D01*
X011513Y006173D01*
X011541Y006152D01*
X011568Y006129D01*
X011591Y006102D01*
X011612Y006074D01*
X011629Y006043D01*
X011642Y006010D01*
X011652Y005976D01*
X011658Y005941D01*
X011660Y005906D01*
X011658Y005871D01*
X011652Y005836D01*
X011642Y005802D01*
X011629Y005769D01*
X011612Y005738D01*
X011591Y005710D01*
X011568Y005683D01*
X011541Y005660D01*
X011513Y005639D01*
X011482Y005622D01*
X011449Y005609D01*
X011415Y005599D01*
X011380Y005593D01*
X011345Y005591D01*
X011310Y005593D01*
X011275Y005599D01*
X011241Y005609D01*
X011208Y005622D01*
X011177Y005639D01*
X011149Y005660D01*
X011122Y005683D01*
X011099Y005710D01*
X011078Y005738D01*
X011061Y005769D01*
X011048Y005802D01*
X011038Y005836D01*
X011032Y005871D01*
X011030Y005906D01*
X011030Y003544D02*
X011032Y003579D01*
X011038Y003614D01*
X011048Y003648D01*
X011061Y003681D01*
X011078Y003712D01*
X011099Y003740D01*
X011122Y003767D01*
X011149Y003790D01*
X011177Y003811D01*
X011208Y003828D01*
X011241Y003841D01*
X011275Y003851D01*
X011310Y003857D01*
X011345Y003859D01*
X011380Y003857D01*
X011415Y003851D01*
X011449Y003841D01*
X011482Y003828D01*
X011513Y003811D01*
X011541Y003790D01*
X011568Y003767D01*
X011591Y003740D01*
X011612Y003712D01*
X011629Y003681D01*
X011642Y003648D01*
X011652Y003614D01*
X011658Y003579D01*
X011660Y003544D01*
X011658Y003509D01*
X011652Y003474D01*
X011642Y003440D01*
X011629Y003407D01*
X011612Y003376D01*
X011591Y003348D01*
X011568Y003321D01*
X011541Y003298D01*
X011513Y003277D01*
X011482Y003260D01*
X011449Y003247D01*
X011415Y003237D01*
X011380Y003231D01*
X011345Y003229D01*
X011310Y003231D01*
X011275Y003237D01*
X011241Y003247D01*
X011208Y003260D01*
X011177Y003277D01*
X011149Y003298D01*
X011122Y003321D01*
X011099Y003348D01*
X011078Y003376D01*
X011061Y003407D01*
X011048Y003440D01*
X011038Y003474D01*
X011032Y003509D01*
X011030Y003544D01*
X004564Y007471D02*
X004566Y007518D01*
X004572Y007565D01*
X004581Y007611D01*
X004595Y007656D01*
X004612Y007700D01*
X004633Y007743D01*
X004657Y007783D01*
X004684Y007822D01*
X004715Y007858D01*
X004748Y007891D01*
X004784Y007922D01*
X004823Y007949D01*
X004863Y007973D01*
X004906Y007994D01*
X004950Y008011D01*
X004995Y008025D01*
X005041Y008034D01*
X005088Y008040D01*
X005135Y008042D01*
X005182Y008040D01*
X005229Y008034D01*
X005275Y008025D01*
X005320Y008011D01*
X005364Y007994D01*
X005407Y007973D01*
X005447Y007949D01*
X005486Y007922D01*
X005522Y007891D01*
X005555Y007858D01*
X005586Y007822D01*
X005613Y007783D01*
X005637Y007743D01*
X005658Y007700D01*
X005675Y007656D01*
X005689Y007611D01*
X005698Y007565D01*
X005704Y007518D01*
X005706Y007471D01*
X005704Y007424D01*
X005698Y007377D01*
X005689Y007331D01*
X005675Y007286D01*
X005658Y007242D01*
X005637Y007199D01*
X005613Y007159D01*
X005586Y007120D01*
X005555Y007084D01*
X005522Y007051D01*
X005486Y007020D01*
X005447Y006993D01*
X005407Y006969D01*
X005364Y006948D01*
X005320Y006931D01*
X005275Y006917D01*
X005229Y006908D01*
X005182Y006902D01*
X005135Y006900D01*
X005088Y006902D01*
X005041Y006908D01*
X004995Y006917D01*
X004950Y006931D01*
X004906Y006948D01*
X004863Y006969D01*
X004823Y006993D01*
X004784Y007020D01*
X004748Y007051D01*
X004715Y007084D01*
X004684Y007120D01*
X004657Y007159D01*
X004633Y007199D01*
X004612Y007242D01*
X004595Y007286D01*
X004581Y007331D01*
X004572Y007377D01*
X004566Y007424D01*
X004564Y007471D01*
D13*
X005082Y001723D02*
X003397Y001723D01*
X003397Y004834D01*
X005751Y004834D01*
X005751Y002393D01*
X005082Y001723D01*
X005956Y001723D02*
X007641Y001723D01*
X008310Y002393D01*
X008310Y004834D01*
X005956Y004834D01*
X005956Y001723D01*
X005189Y003115D02*
X004888Y003115D01*
X005039Y003115D02*
X005039Y003565D01*
X004888Y003415D01*
X005712Y003653D02*
X003436Y003653D01*
X003429Y005210D02*
X003790Y005210D01*
X004111Y005365D02*
X004151Y005405D01*
X004072Y005483D01*
X004151Y005562D01*
X004072Y005641D01*
X004151Y005719D01*
X004072Y005798D01*
X004111Y005838D01*
X005194Y005601D02*
X005233Y005601D01*
X005233Y005483D01*
X005312Y005483D02*
X005312Y005601D01*
X005351Y005601D01*
X005312Y005601D02*
X005312Y005719D01*
X005233Y005719D02*
X005233Y005601D01*
X005578Y005243D02*
X005578Y004882D01*
X005397Y005063D02*
X005758Y005063D01*
X005978Y005151D02*
X006339Y005151D01*
X006552Y005365D02*
X006592Y005405D01*
X006513Y005483D01*
X006592Y005562D01*
X006513Y005641D01*
X006592Y005719D01*
X006513Y005798D01*
X006552Y005838D01*
X007645Y005601D02*
X007684Y005601D01*
X007684Y005483D01*
X007763Y005483D02*
X007763Y005601D01*
X007802Y005601D01*
X007763Y005601D02*
X007763Y005719D01*
X007684Y005719D02*
X007684Y005601D01*
X008127Y005273D02*
X008127Y004912D01*
X007947Y005092D02*
X008307Y005092D01*
X008271Y003653D02*
X005995Y003653D01*
X007447Y003415D02*
X007598Y003565D01*
X007598Y003115D01*
X007748Y003115D02*
X007447Y003115D01*
X008639Y007304D02*
X008639Y009036D01*
X012812Y009036D01*
X012930Y009036D01*
X012930Y007304D01*
X012891Y007304D01*
X012851Y007304D01*
X012812Y007304D01*
X008639Y007304D01*
X008639Y009086D02*
X008639Y010818D01*
X012812Y010818D01*
X012930Y010818D01*
X012930Y009086D01*
X012891Y009086D01*
X012851Y009086D01*
X012812Y009086D01*
X008639Y009086D01*
X012074Y012954D02*
X012074Y014725D01*
X012960Y014725D01*
X012960Y014627D01*
X012960Y014725D02*
X013845Y014725D01*
X013845Y012954D01*
X012960Y012954D01*
X012960Y013052D01*
X012960Y012954D02*
X012074Y012954D01*
X011532Y013702D02*
X011178Y013702D01*
X011178Y013584D01*
X011178Y013702D02*
X011178Y013820D01*
X011021Y013820D02*
X011021Y013702D01*
X010666Y013702D01*
X010538Y013712D02*
X010184Y013712D01*
X010184Y013594D01*
X010184Y013712D02*
X010184Y013830D01*
X010027Y013830D02*
X010027Y013712D01*
X009672Y013712D01*
X010027Y013712D02*
X010027Y013594D01*
X009416Y014046D02*
X009298Y014046D01*
X009298Y014007D01*
X009298Y014046D02*
X009180Y014046D01*
X009180Y014125D02*
X009298Y014125D01*
X009298Y014164D01*
X009298Y014125D02*
X009416Y014125D01*
X009013Y015444D02*
X008973Y015483D01*
X008895Y015405D01*
X008816Y015483D01*
X008737Y015405D01*
X008658Y015483D01*
X008580Y015405D01*
X008540Y015444D01*
X009062Y016497D02*
X009101Y016536D01*
X009023Y016615D01*
X009101Y016694D01*
X009023Y016773D01*
X009101Y016851D01*
X009023Y016930D01*
X009062Y016969D01*
X009790Y017255D02*
X009790Y017373D01*
X009751Y017373D01*
X009790Y017373D02*
X009790Y017491D01*
X009869Y017491D02*
X009869Y017373D01*
X009908Y017373D01*
X009869Y017373D02*
X009869Y017255D01*
X009830Y017737D02*
X009869Y017777D01*
X009790Y017855D01*
X009869Y017934D01*
X009790Y018013D01*
X009869Y018092D01*
X009790Y018170D01*
X009830Y018210D01*
X009515Y018653D02*
X009515Y018692D01*
X011011Y018692D01*
X011011Y021369D01*
X009515Y021369D01*
X009515Y018692D01*
X009515Y018731D02*
X011011Y018731D01*
X011011Y018692D02*
X011011Y018653D01*
X009515Y018653D01*
X009111Y017718D02*
X009032Y017639D01*
X008954Y017718D01*
X008875Y017639D01*
X008796Y017718D01*
X008718Y017639D01*
X008678Y017678D01*
X009111Y017718D02*
X009151Y017678D01*
X009840Y016369D02*
X009800Y016330D01*
X009879Y016251D01*
X009800Y016172D01*
X009879Y016094D01*
X009800Y016015D01*
X009879Y015936D01*
X009840Y015897D01*
X009879Y015700D02*
X009879Y015582D01*
X009918Y015582D01*
X009879Y015582D02*
X009879Y015464D01*
X009800Y015464D02*
X009800Y015582D01*
X009761Y015582D01*
X009800Y015582D02*
X009800Y015700D01*
X011021Y013702D02*
X011021Y013584D01*
X012763Y013643D02*
X012765Y013617D01*
X012770Y013592D01*
X012778Y013568D01*
X012789Y013545D01*
X012804Y013523D01*
X012821Y013504D01*
X012840Y013487D01*
X012862Y013472D01*
X012885Y013461D01*
X012909Y013453D01*
X012934Y013448D01*
X012960Y013446D01*
X012763Y013643D02*
X012765Y013669D01*
X012770Y013694D01*
X012778Y013718D01*
X012789Y013742D01*
X012804Y013763D01*
X012821Y013782D01*
X012840Y013799D01*
X012862Y013814D01*
X012885Y013825D01*
X012909Y013833D01*
X012934Y013838D01*
X012960Y013840D01*
X012960Y013839D02*
X012986Y013841D01*
X013011Y013846D01*
X013035Y013854D01*
X013059Y013865D01*
X013080Y013880D01*
X013099Y013897D01*
X013116Y013916D01*
X013131Y013938D01*
X013142Y013961D01*
X013150Y013985D01*
X013155Y014010D01*
X013157Y014036D01*
X013155Y014062D01*
X013150Y014087D01*
X013142Y014111D01*
X013131Y014135D01*
X013116Y014156D01*
X013099Y014175D01*
X013080Y014192D01*
X013059Y014207D01*
X013035Y014218D01*
X013011Y014226D01*
X012986Y014231D01*
X012960Y014233D01*
X012934Y014235D01*
X012909Y014240D01*
X012885Y014248D01*
X012862Y014259D01*
X012840Y014274D01*
X012821Y014291D01*
X012804Y014310D01*
X012789Y014332D01*
X012778Y014355D01*
X012770Y014379D01*
X012765Y014404D01*
X012763Y014430D01*
X012765Y014456D01*
X012770Y014481D01*
X012778Y014505D01*
X012789Y014529D01*
X012804Y014550D01*
X012821Y014569D01*
X012840Y014586D01*
X012862Y014601D01*
X012885Y014612D01*
X012909Y014620D01*
X012934Y014625D01*
X012960Y014627D01*
X012960Y013446D02*
X012987Y013444D01*
X013013Y013439D01*
X013038Y013430D01*
X013062Y013417D01*
X013084Y013402D01*
X013104Y013383D01*
X013121Y013363D01*
X013135Y013340D01*
X013146Y013315D01*
X013153Y013289D01*
X013157Y013262D01*
X013157Y013236D01*
X013153Y013209D01*
X013146Y013183D01*
X013135Y013158D01*
X013121Y013135D01*
X013104Y013115D01*
X013084Y013096D01*
X013062Y013081D01*
X013038Y013068D01*
X013013Y013059D01*
X012987Y013054D01*
X012960Y013052D01*
X012812Y010818D02*
X012812Y009086D01*
X012851Y009086D02*
X012851Y010779D01*
X012891Y010779D01*
X012891Y009086D01*
X012891Y008997D02*
X012851Y008997D01*
X012851Y007304D01*
X012812Y007304D02*
X012812Y009036D01*
X012891Y008997D02*
X012891Y007304D01*
X035313Y005001D02*
X035316Y004637D01*
X035313Y004273D01*
X035312Y004273D02*
X036040Y004273D01*
X036040Y005001D01*
X035312Y005001D01*
X035468Y005278D02*
X035768Y005278D01*
X035618Y005278D02*
X035618Y005728D01*
X035468Y005578D01*
X036176Y005137D02*
X036176Y003137D01*
X023176Y003137D01*
X023176Y005137D01*
X036176Y005137D01*
X036277Y004942D02*
X036277Y003761D01*
X037261Y003367D02*
X037261Y005336D01*
X035351Y007570D02*
X035233Y007570D01*
X035233Y007531D01*
X035233Y007570D02*
X035115Y007570D01*
X035115Y007649D02*
X035233Y007649D01*
X035233Y007688D01*
X035233Y007649D02*
X035351Y007649D01*
X034176Y007137D02*
X030176Y007137D01*
X030176Y005137D01*
X034176Y005137D01*
X034176Y007137D01*
X034451Y005862D02*
X034451Y005412D01*
X034301Y005412D02*
X034601Y005412D01*
X034301Y005712D02*
X034451Y005862D01*
X029941Y006487D02*
X029866Y006412D01*
X029716Y006412D01*
X029641Y006487D01*
X029641Y006562D01*
X029716Y006637D01*
X029866Y006637D01*
X029941Y006562D01*
X029941Y006487D01*
X029866Y006637D02*
X029941Y006712D01*
X029941Y006787D01*
X029866Y006862D01*
X029716Y006862D01*
X029641Y006787D01*
X029641Y006712D01*
X029716Y006637D01*
X023172Y005621D02*
X023172Y003180D01*
X022503Y002511D01*
X020818Y002511D01*
X020818Y005621D01*
X023172Y005621D01*
X023133Y004440D02*
X020857Y004440D01*
X022166Y003765D02*
X022241Y003840D01*
X022391Y003840D01*
X022466Y003765D01*
X022466Y003690D01*
X022166Y003390D01*
X022466Y003390D01*
X022627Y003465D02*
X022627Y003615D01*
X022852Y003615D01*
X022927Y003540D01*
X022927Y003465D01*
X022852Y003390D01*
X022702Y003390D01*
X022627Y003465D01*
X022627Y003615D02*
X022777Y003765D01*
X022927Y003840D01*
X022610Y003902D02*
X022310Y003902D01*
X022460Y003902D02*
X022460Y004353D01*
X022310Y004203D01*
X020115Y013141D02*
X020036Y013219D01*
X019958Y013141D01*
X019879Y013219D01*
X019800Y013141D01*
X019761Y013180D01*
X019653Y013180D02*
X019613Y013219D01*
X019534Y013141D01*
X019456Y013219D01*
X019377Y013141D01*
X019298Y013219D01*
X019219Y013141D01*
X019180Y013180D01*
X020115Y013141D02*
X020194Y013219D01*
X020233Y013180D01*
X020243Y015277D02*
X020322Y015355D01*
X020361Y015316D01*
X020243Y015277D02*
X020164Y015355D01*
X020086Y015277D01*
X020007Y015355D01*
X019928Y015277D01*
X019889Y015316D01*
X019928Y016527D02*
X020007Y016605D01*
X020086Y016527D01*
X020164Y016605D01*
X020243Y016527D01*
X020322Y016605D01*
X020361Y016566D01*
X019928Y016527D02*
X019889Y016566D01*
X020469Y017412D02*
X020469Y019184D01*
X021355Y019184D01*
X021355Y019086D01*
X021355Y019184D02*
X022241Y019184D01*
X022241Y017412D01*
X021355Y017412D01*
X021355Y017511D01*
X021355Y017412D02*
X020469Y017412D01*
X021355Y017905D02*
X021381Y017903D01*
X021406Y017898D01*
X021430Y017890D01*
X021454Y017879D01*
X021475Y017864D01*
X021494Y017847D01*
X021511Y017828D01*
X021526Y017807D01*
X021537Y017783D01*
X021545Y017759D01*
X021550Y017734D01*
X021552Y017708D01*
X021550Y017682D01*
X021545Y017657D01*
X021537Y017633D01*
X021526Y017610D01*
X021511Y017588D01*
X021494Y017569D01*
X021475Y017552D01*
X021454Y017537D01*
X021430Y017526D01*
X021406Y017518D01*
X021381Y017513D01*
X021355Y017511D01*
X021158Y018101D02*
X021160Y018127D01*
X021165Y018152D01*
X021173Y018176D01*
X021184Y018200D01*
X021199Y018221D01*
X021216Y018240D01*
X021235Y018257D01*
X021257Y018272D01*
X021280Y018283D01*
X021304Y018291D01*
X021329Y018296D01*
X021355Y018298D01*
X021158Y018101D02*
X021160Y018075D01*
X021165Y018050D01*
X021173Y018026D01*
X021184Y018003D01*
X021199Y017981D01*
X021216Y017962D01*
X021235Y017945D01*
X021257Y017930D01*
X021280Y017919D01*
X021304Y017911D01*
X021329Y017906D01*
X021355Y017904D01*
X021552Y018495D02*
X021550Y018521D01*
X021545Y018546D01*
X021537Y018570D01*
X021526Y018594D01*
X021511Y018615D01*
X021494Y018634D01*
X021475Y018651D01*
X021454Y018666D01*
X021430Y018677D01*
X021406Y018685D01*
X021381Y018690D01*
X021355Y018692D01*
X021328Y018694D01*
X021302Y018699D01*
X021277Y018708D01*
X021253Y018721D01*
X021231Y018736D01*
X021211Y018755D01*
X021194Y018775D01*
X021180Y018798D01*
X021169Y018823D01*
X021162Y018849D01*
X021158Y018876D01*
X021158Y018902D01*
X021162Y018929D01*
X021169Y018955D01*
X021180Y018980D01*
X021194Y019003D01*
X021211Y019023D01*
X021231Y019042D01*
X021253Y019057D01*
X021277Y019070D01*
X021302Y019079D01*
X021328Y019084D01*
X021355Y019086D01*
X021552Y018495D02*
X021550Y018469D01*
X021545Y018444D01*
X021537Y018420D01*
X021526Y018397D01*
X021511Y018375D01*
X021494Y018356D01*
X021475Y018339D01*
X021454Y018324D01*
X021430Y018313D01*
X021406Y018305D01*
X021381Y018300D01*
X021355Y018298D01*
X021867Y020178D02*
X021906Y020218D01*
X021828Y020296D01*
X021906Y020375D01*
X021828Y020454D01*
X021906Y020532D01*
X021828Y020611D01*
X021867Y020651D01*
X022213Y021187D02*
X022213Y021437D01*
X022213Y021187D02*
X022363Y021187D01*
X023163Y021187D02*
X023313Y021187D01*
X023313Y021437D01*
X023383Y020808D02*
X023383Y020769D01*
X023501Y020769D01*
X023501Y020690D02*
X023383Y020690D01*
X023383Y020651D01*
X023383Y020690D02*
X023265Y020690D01*
X023265Y020769D02*
X023383Y020769D01*
X022950Y020158D02*
X022989Y020119D01*
X022950Y020158D02*
X022871Y020080D01*
X022792Y020158D01*
X022714Y020080D01*
X022635Y020158D01*
X022556Y020080D01*
X022517Y020119D01*
X023826Y019243D02*
X023826Y021920D01*
X023826Y021960D01*
X025322Y021960D01*
X025322Y021920D01*
X023826Y021920D01*
X023826Y021881D02*
X025322Y021881D01*
X025322Y021920D02*
X025322Y019243D01*
X023826Y019243D01*
X024672Y018810D02*
X024712Y018849D01*
X024672Y018810D02*
X024751Y018731D01*
X024672Y018653D01*
X024751Y018574D01*
X024672Y018495D01*
X024751Y018416D01*
X024712Y018377D01*
X025174Y018210D02*
X024229Y018210D01*
X024229Y017029D01*
X025174Y017029D01*
X025174Y018210D01*
X024997Y019568D02*
X024999Y019589D01*
X025005Y019609D01*
X025014Y019629D01*
X025026Y019646D01*
X025041Y019660D01*
X025059Y019672D01*
X025079Y019680D01*
X025099Y019685D01*
X025120Y019686D01*
X025141Y019683D01*
X025161Y019677D01*
X025180Y019666D01*
X025197Y019653D01*
X025210Y019637D01*
X025221Y019619D01*
X025229Y019599D01*
X025233Y019579D01*
X025233Y019557D01*
X025229Y019537D01*
X025221Y019517D01*
X025210Y019499D01*
X025197Y019483D01*
X025180Y019470D01*
X025161Y019459D01*
X025141Y019453D01*
X025120Y019450D01*
X025099Y019451D01*
X025079Y019456D01*
X025059Y019464D01*
X025041Y019476D01*
X025026Y019490D01*
X025014Y019507D01*
X025005Y019527D01*
X024999Y019547D01*
X024997Y019568D01*
X027428Y019538D02*
X027428Y022216D01*
X027428Y022255D01*
X028924Y022255D01*
X028924Y022216D01*
X027428Y022216D01*
X027428Y022176D02*
X028924Y022176D01*
X028924Y022216D02*
X028924Y019538D01*
X027428Y019538D01*
X028137Y019391D02*
X028216Y019312D01*
X028137Y019233D01*
X028216Y019155D01*
X028137Y019076D01*
X028216Y018997D01*
X028176Y018958D01*
X027802Y018869D02*
X028983Y018869D01*
X028983Y017924D01*
X027802Y017924D01*
X027802Y018869D01*
X028137Y019391D02*
X028176Y019430D01*
X028432Y017403D02*
X028432Y017284D01*
X028393Y017284D01*
X028432Y017284D02*
X028432Y017166D01*
X028511Y017166D02*
X028511Y017284D01*
X028550Y017284D01*
X028511Y017284D02*
X028511Y017403D01*
X028501Y016832D02*
X028501Y016714D01*
X028540Y016714D01*
X028501Y016714D02*
X028501Y016595D01*
X028422Y016595D02*
X028422Y016714D01*
X028383Y016714D01*
X028422Y016714D02*
X028422Y016832D01*
X028373Y016231D02*
X028373Y016034D01*
X028373Y015838D01*
X028294Y015838D02*
X028294Y016034D01*
X028216Y016034D01*
X028294Y016034D02*
X028294Y016231D01*
X028373Y016034D02*
X028452Y016034D01*
X029515Y016566D02*
X029633Y016566D01*
X029633Y016527D01*
X029633Y016566D02*
X029751Y016566D01*
X029751Y016645D02*
X029633Y016645D01*
X029633Y016684D01*
X029633Y016645D02*
X029515Y016645D01*
X030105Y016645D02*
X030223Y016645D01*
X030223Y016684D01*
X030223Y016645D02*
X030342Y016645D01*
X030342Y016566D02*
X030223Y016566D01*
X030223Y016527D01*
X030223Y016566D02*
X030105Y016566D01*
X031542Y016044D02*
X031660Y016044D01*
X031660Y016084D01*
X031660Y016044D02*
X031779Y016044D01*
X031779Y015966D02*
X031660Y015966D01*
X031660Y015926D01*
X031660Y015966D02*
X031542Y015966D01*
X033412Y018475D02*
X033609Y018475D01*
X033609Y018397D01*
X033609Y018475D02*
X033806Y018475D01*
X033806Y018554D02*
X033609Y018554D01*
X033412Y018554D01*
X033609Y018554D02*
X033609Y018633D01*
X034633Y018662D02*
X034712Y018741D01*
X034633Y018820D01*
X034672Y018859D01*
X034633Y018662D02*
X034712Y018584D01*
X034633Y018505D01*
X034712Y018426D01*
X034672Y018387D01*
X034672Y018279D02*
X034633Y018239D01*
X034712Y018160D01*
X034633Y018082D01*
X034712Y018003D01*
X034633Y017924D01*
X034712Y017845D01*
X034672Y017806D01*
X035155Y019451D02*
X035405Y019451D01*
X035405Y019601D01*
X035405Y020401D02*
X035405Y020551D01*
X035155Y020551D01*
X033727Y020277D02*
X033688Y020277D01*
X033688Y020158D01*
X033609Y020158D02*
X033609Y020277D01*
X033570Y020277D01*
X033609Y020277D02*
X033609Y020395D01*
X033688Y020395D02*
X033688Y020277D01*
X032261Y021408D02*
X032182Y021487D01*
X032261Y021566D01*
X032182Y021645D01*
X032261Y021723D01*
X032182Y021802D01*
X032221Y021842D01*
X032261Y021408D02*
X032221Y021369D01*
X032507Y022403D02*
X032507Y022442D01*
X032625Y022442D01*
X032625Y022521D02*
X032507Y022521D01*
X032507Y022560D01*
X032507Y022521D02*
X032389Y022521D01*
X032389Y022442D02*
X032507Y022442D01*
X032162Y022481D02*
X032123Y022521D01*
X032044Y022442D01*
X031966Y022521D01*
X031887Y022442D01*
X031808Y022521D01*
X031729Y022442D01*
X031690Y022481D01*
X031582Y022481D02*
X031542Y022521D01*
X031464Y022442D01*
X031385Y022521D01*
X031306Y022442D01*
X031227Y022521D01*
X031149Y022442D01*
X031109Y022481D01*
X030903Y022442D02*
X030784Y022442D01*
X030784Y022403D01*
X030784Y022442D02*
X030666Y022442D01*
X030666Y022521D02*
X030784Y022521D01*
X030784Y022560D01*
X030784Y022521D02*
X030903Y022521D01*
X031050Y021842D02*
X031011Y021802D01*
X031090Y021723D01*
X031011Y021645D01*
X031090Y021566D01*
X031011Y021487D01*
X031090Y021408D01*
X031050Y021369D01*
X030271Y022079D02*
X030271Y022329D01*
X030121Y022329D01*
X029321Y022329D02*
X029171Y022329D01*
X029171Y022079D01*
X026601Y023412D02*
X026301Y023412D01*
X026451Y023412D02*
X026451Y023862D01*
X026301Y023712D01*
X026176Y024137D02*
X026176Y022137D01*
X025176Y022137D01*
X025176Y024137D01*
X026176Y024137D01*
X024456Y024342D02*
X022487Y024342D01*
X022881Y023357D02*
X024062Y023357D01*
X022625Y022924D02*
X022625Y022806D01*
X022664Y022806D01*
X022625Y022806D02*
X022625Y022688D01*
X022546Y022688D02*
X022546Y022806D01*
X022507Y022806D01*
X022546Y022806D02*
X022546Y022924D01*
X021798Y022688D02*
X021759Y022727D01*
X021680Y022649D01*
X021601Y022727D01*
X021523Y022649D01*
X021444Y022727D01*
X021365Y022649D01*
X021326Y022688D01*
X019373Y022747D02*
X017097Y022747D01*
X017510Y022835D02*
X017810Y022835D01*
X017660Y022835D02*
X017660Y023285D01*
X017510Y023135D01*
X017058Y024007D02*
X017727Y024676D01*
X019412Y024676D01*
X019412Y021566D01*
X017058Y021566D01*
X017058Y024007D01*
X016582Y020316D02*
X016542Y020277D01*
X016621Y020198D01*
X016542Y020119D01*
X016621Y020040D01*
X016542Y019962D01*
X016621Y019883D01*
X016582Y019844D01*
X016582Y019765D02*
X016542Y019725D01*
X016621Y019647D01*
X016542Y019568D01*
X016621Y019489D01*
X016542Y019410D01*
X016621Y019332D01*
X016582Y019292D01*
X015135Y019214D02*
X015056Y019292D01*
X015135Y019371D01*
X015056Y019450D01*
X015135Y019529D01*
X015056Y019607D01*
X015095Y019647D01*
X015135Y019214D02*
X015095Y019174D01*
X014682Y018269D02*
X014682Y017718D01*
X014761Y017718D01*
X014682Y017718D02*
X014603Y017718D01*
X014603Y017560D02*
X014682Y017560D01*
X014682Y017009D01*
X014554Y016861D02*
X014515Y016822D01*
X014594Y016743D01*
X014515Y016664D01*
X014594Y016586D01*
X014515Y016507D01*
X014594Y016428D01*
X014554Y016389D01*
X014879Y015906D02*
X014879Y015788D01*
X014840Y015788D01*
X014879Y015788D02*
X014879Y015670D01*
X014958Y015670D02*
X014958Y015788D01*
X014997Y015788D01*
X014958Y015788D02*
X014958Y015906D01*
X014918Y015444D02*
X014879Y015405D01*
X014958Y015326D01*
X014879Y015247D01*
X014958Y015168D01*
X014879Y015090D01*
X014958Y015011D01*
X014918Y014971D01*
X015824Y015995D02*
X015903Y016074D01*
X015981Y015995D01*
X016060Y016074D01*
X016139Y015995D01*
X016218Y016074D01*
X016257Y016034D01*
X015824Y015995D02*
X015784Y016034D01*
X014761Y017560D02*
X014682Y017560D01*
X018599Y017964D02*
X018718Y017964D01*
X018718Y017609D01*
X018718Y017964D02*
X018836Y017964D01*
X018836Y018121D02*
X018718Y018121D01*
X018718Y018475D01*
X018718Y018121D02*
X018599Y018121D01*
X019052Y018751D02*
X019052Y018869D01*
X019013Y018869D01*
X019052Y018869D02*
X019052Y018987D01*
X019131Y018987D02*
X019131Y018869D01*
X019170Y018869D01*
X019131Y018869D02*
X019131Y018751D01*
X022556Y013692D02*
X022674Y013692D01*
X022674Y013731D01*
X022674Y013692D02*
X022792Y013692D01*
X022792Y013613D02*
X022674Y013613D01*
X022674Y013574D01*
X022674Y013613D02*
X022556Y013613D01*
X013352Y021758D02*
X013352Y022008D01*
X013352Y021758D02*
X013202Y021758D01*
X012402Y021758D02*
X012252Y021758D01*
X012252Y022008D01*
X012153Y022550D02*
X012153Y021369D01*
X011208Y021369D01*
X011208Y022550D01*
X012153Y022550D01*
X011936Y022914D02*
X011975Y022954D01*
X011897Y023032D01*
X011975Y023111D01*
X011897Y023190D01*
X011975Y023269D01*
X011897Y023347D01*
X011936Y023387D01*
X010676Y023525D02*
X010676Y023052D01*
X010401Y023052D01*
X010401Y024312D01*
X010676Y024312D01*
X010676Y023840D01*
X010676Y023839D02*
X010653Y023837D01*
X010630Y023832D01*
X010608Y023823D01*
X010588Y023812D01*
X010569Y023797D01*
X010553Y023780D01*
X010540Y023761D01*
X010530Y023739D01*
X010523Y023717D01*
X010519Y023694D01*
X010519Y023670D01*
X010523Y023647D01*
X010530Y023625D01*
X010540Y023604D01*
X010553Y023584D01*
X010569Y023567D01*
X010588Y023552D01*
X010608Y023541D01*
X010630Y023532D01*
X010653Y023527D01*
X010676Y023525D01*
X010401Y023052D02*
X009219Y023052D01*
X009219Y024312D01*
X010401Y024312D01*
X009219Y024312D02*
X008944Y024312D01*
X008944Y023840D01*
X008944Y023839D02*
X008967Y023837D01*
X008990Y023832D01*
X009012Y023823D01*
X009032Y023812D01*
X009051Y023797D01*
X009067Y023780D01*
X009080Y023761D01*
X009090Y023739D01*
X009097Y023717D01*
X009101Y023694D01*
X009101Y023670D01*
X009097Y023647D01*
X009090Y023625D01*
X009080Y023604D01*
X009067Y023584D01*
X009051Y023567D01*
X009032Y023552D01*
X009012Y023541D01*
X008990Y023532D01*
X008967Y023527D01*
X008944Y023525D01*
X008944Y023052D01*
X009219Y023052D01*
X009210Y022708D02*
X008934Y022708D01*
X008934Y022235D01*
X008957Y022233D01*
X008980Y022228D01*
X009002Y022219D01*
X009022Y022208D01*
X009041Y022193D01*
X009057Y022176D01*
X009070Y022157D01*
X009080Y022135D01*
X009087Y022113D01*
X009091Y022090D01*
X009091Y022066D01*
X009087Y022043D01*
X009080Y022021D01*
X009070Y022000D01*
X009057Y021980D01*
X009041Y021963D01*
X009022Y021948D01*
X009002Y021937D01*
X008980Y021928D01*
X008957Y021923D01*
X008934Y021921D01*
X008934Y021920D02*
X008934Y021448D01*
X009210Y021448D01*
X009210Y022708D01*
X010391Y022708D01*
X010391Y021448D01*
X009210Y021448D01*
X010391Y021448D02*
X010666Y021448D01*
X010666Y021920D01*
X010666Y021921D02*
X010643Y021923D01*
X010620Y021928D01*
X010598Y021937D01*
X010578Y021948D01*
X010559Y021963D01*
X010543Y021980D01*
X010530Y022000D01*
X010520Y022021D01*
X010513Y022043D01*
X010509Y022066D01*
X010509Y022090D01*
X010513Y022113D01*
X010520Y022135D01*
X010530Y022157D01*
X010543Y022176D01*
X010559Y022193D01*
X010578Y022208D01*
X010598Y022219D01*
X010620Y022228D01*
X010643Y022233D01*
X010666Y022235D01*
X010666Y022708D01*
X010391Y022708D01*
X008078Y023633D02*
X007684Y024027D01*
X007290Y023633D01*
X007684Y024027D02*
X007684Y022845D01*
X006818Y020306D02*
X006700Y020306D01*
X006700Y020345D01*
X006700Y020306D02*
X006582Y020306D01*
X006582Y020227D02*
X006700Y020227D01*
X006700Y020188D01*
X006700Y020227D02*
X006818Y020227D01*
X006227Y018609D02*
X003117Y018609D01*
X003117Y016924D01*
X003786Y016255D01*
X006227Y016255D01*
X006227Y018609D01*
X006810Y017922D02*
X006810Y017562D01*
X006860Y016968D02*
X006860Y016607D01*
X007040Y016787D02*
X006679Y016787D01*
X005046Y016294D02*
X005046Y018570D01*
X004959Y017007D02*
X004959Y016707D01*
X004959Y016857D02*
X004508Y016857D01*
X004658Y016707D01*
X033030Y022364D02*
X033030Y022614D01*
X033180Y022614D01*
X033980Y022614D02*
X034130Y022614D01*
X034130Y022364D01*
X036424Y023633D02*
X036818Y024027D01*
X037212Y023633D01*
X036818Y024027D02*
X036818Y022845D01*
X034259Y015532D02*
X034259Y015414D01*
X034298Y015414D01*
X034259Y015414D02*
X034259Y015296D01*
X034180Y015296D02*
X034180Y015414D01*
X034141Y015414D01*
X034180Y015414D02*
X034180Y015532D01*
D14*
X034194Y015083D02*
X034109Y015083D01*
X034066Y015041D01*
X034066Y014870D01*
X034109Y014828D01*
X034194Y014828D01*
X034237Y014870D01*
X034320Y014870D02*
X034362Y014828D01*
X034448Y014828D01*
X034490Y014870D01*
X034490Y014913D01*
X034448Y014955D01*
X034405Y014955D01*
X034448Y014955D02*
X034490Y014998D01*
X034490Y015041D01*
X034448Y015083D01*
X034362Y015083D01*
X034320Y015041D01*
X034237Y015041D02*
X034194Y015083D01*
X033593Y015875D02*
X033593Y015960D01*
X033593Y015918D02*
X033338Y015918D01*
X033338Y015960D02*
X033338Y015875D01*
X033380Y016044D02*
X033551Y016044D01*
X033593Y016087D01*
X033593Y016172D01*
X033551Y016215D01*
X033593Y016298D02*
X033593Y016469D01*
X033593Y016383D02*
X033338Y016383D01*
X033423Y016298D01*
X033380Y016215D02*
X033338Y016172D01*
X033338Y016087D01*
X033380Y016044D01*
X032267Y016030D02*
X032267Y016115D01*
X032224Y016158D01*
X032182Y016158D01*
X032139Y016115D01*
X032139Y015987D01*
X032224Y015987D01*
X032267Y016030D01*
X032267Y015904D02*
X032267Y015733D01*
X032096Y015904D01*
X032054Y015904D01*
X032011Y015861D01*
X032011Y015776D01*
X032054Y015733D01*
X032054Y015650D02*
X032011Y015608D01*
X032011Y015522D01*
X032054Y015480D01*
X032224Y015480D01*
X032267Y015522D01*
X032267Y015608D01*
X032224Y015650D01*
X032139Y015987D02*
X032054Y016072D01*
X032011Y016158D01*
X030820Y016172D02*
X030820Y016257D01*
X030777Y016300D01*
X030777Y016383D02*
X030820Y016426D01*
X030820Y016511D01*
X030777Y016554D01*
X030735Y016554D01*
X030692Y016511D01*
X030692Y016468D01*
X030692Y016511D02*
X030650Y016554D01*
X030607Y016554D01*
X030564Y016511D01*
X030564Y016426D01*
X030607Y016383D01*
X030607Y016300D02*
X030564Y016257D01*
X030564Y016172D01*
X030607Y016129D01*
X030777Y016129D01*
X030820Y016172D01*
X030777Y016637D02*
X030820Y016679D01*
X030820Y016765D01*
X030777Y016807D01*
X030735Y016807D01*
X030692Y016765D01*
X030692Y016722D01*
X030692Y016765D02*
X030650Y016807D01*
X030607Y016807D01*
X030564Y016765D01*
X030564Y016679D01*
X030607Y016637D01*
X029311Y016564D02*
X029141Y016735D01*
X029098Y016735D01*
X029056Y016692D01*
X029056Y016607D01*
X029098Y016564D01*
X029098Y016481D02*
X029056Y016438D01*
X029056Y016353D01*
X029098Y016311D01*
X029269Y016311D01*
X029311Y016353D01*
X029311Y016438D01*
X029269Y016481D01*
X029311Y016564D02*
X029311Y016735D01*
X029269Y016818D02*
X029311Y016861D01*
X029311Y016946D01*
X029269Y016989D01*
X029098Y016989D01*
X029056Y016946D01*
X029056Y016861D01*
X029098Y016818D01*
X029141Y016818D01*
X029184Y016861D01*
X029184Y016989D01*
X029115Y017797D02*
X029371Y017797D01*
X029371Y017967D01*
X029243Y018051D02*
X029243Y018221D01*
X029371Y018178D02*
X029115Y018178D01*
X029243Y018051D01*
X028747Y017852D02*
X028747Y017809D01*
X028576Y017639D01*
X028576Y017596D01*
X028493Y017596D02*
X028322Y017596D01*
X028493Y017767D01*
X028493Y017809D01*
X028450Y017852D01*
X028365Y017852D01*
X028322Y017809D01*
X028239Y017809D02*
X028196Y017852D01*
X028111Y017852D01*
X028068Y017809D01*
X028068Y017639D01*
X028111Y017596D01*
X028196Y017596D01*
X028239Y017639D01*
X028576Y017852D02*
X028747Y017852D01*
X028810Y018840D02*
X028810Y018968D01*
X028852Y019011D01*
X028937Y019011D01*
X028980Y018968D01*
X028980Y018840D01*
X028980Y018925D02*
X029065Y019011D01*
X029065Y019094D02*
X029065Y019264D01*
X029065Y019179D02*
X028810Y019179D01*
X028895Y019094D01*
X028852Y019348D02*
X028810Y019390D01*
X028810Y019476D01*
X028852Y019518D01*
X028895Y019518D01*
X028937Y019476D01*
X028980Y019518D01*
X029023Y019518D01*
X029065Y019476D01*
X029065Y019390D01*
X029023Y019348D01*
X028937Y019433D02*
X028937Y019476D01*
X028985Y020078D02*
X028985Y020249D01*
X029028Y020249D01*
X029198Y020078D01*
X029241Y020078D01*
X029241Y020249D01*
X029241Y020332D02*
X028985Y020332D01*
X028985Y020460D01*
X029028Y020503D01*
X029198Y020503D01*
X029241Y020460D01*
X029241Y020332D01*
X029198Y020586D02*
X029241Y020629D01*
X029241Y020714D01*
X029198Y020757D01*
X029156Y020757D01*
X029113Y020714D01*
X029113Y020671D01*
X029113Y020714D02*
X029070Y020757D01*
X029028Y020757D01*
X028985Y020714D01*
X028985Y020629D01*
X029028Y020586D01*
X029246Y020842D02*
X029373Y020842D01*
X029416Y020884D01*
X029416Y021055D01*
X029373Y021098D01*
X029246Y021098D01*
X029246Y020842D01*
X029499Y020884D02*
X029542Y020842D01*
X029627Y020842D01*
X029670Y020884D01*
X029670Y020927D01*
X029627Y020970D01*
X029499Y020970D01*
X029499Y020884D01*
X029499Y020970D02*
X029585Y021055D01*
X029670Y021098D01*
X030554Y021114D02*
X030682Y021114D01*
X030725Y021156D01*
X030725Y021241D01*
X030682Y021284D01*
X030554Y021284D01*
X030554Y021028D01*
X030640Y021114D02*
X030725Y021028D01*
X030808Y021028D02*
X030979Y021199D01*
X030979Y021241D01*
X030936Y021284D01*
X030851Y021284D01*
X030808Y021241D01*
X030808Y021028D02*
X030979Y021028D01*
X031062Y021071D02*
X031105Y021028D01*
X031190Y021028D01*
X031232Y021071D01*
X031232Y021156D01*
X031190Y021199D01*
X031147Y021199D01*
X031062Y021156D01*
X031062Y021284D01*
X031232Y021284D01*
X031824Y021264D02*
X031824Y021009D01*
X031824Y021094D02*
X031952Y021094D01*
X031995Y021137D01*
X031995Y021222D01*
X031952Y021264D01*
X031824Y021264D01*
X031909Y021094D02*
X031995Y021009D01*
X032078Y021009D02*
X032248Y021179D01*
X032248Y021222D01*
X032206Y021264D01*
X032121Y021264D01*
X032078Y021222D01*
X032078Y021009D02*
X032248Y021009D01*
X032332Y021009D02*
X032332Y021051D01*
X032502Y021222D01*
X032502Y021264D01*
X032332Y021264D01*
X033330Y021176D02*
X033458Y021176D01*
X033501Y021219D01*
X033501Y021390D01*
X033458Y021432D01*
X033330Y021432D01*
X033330Y021176D01*
X033584Y021176D02*
X033584Y021219D01*
X033755Y021390D01*
X033755Y021432D01*
X033584Y021432D01*
X033019Y022629D02*
X033061Y022672D01*
X033061Y022757D01*
X033019Y022800D01*
X033061Y022883D02*
X032891Y023054D01*
X032848Y023054D01*
X032806Y023011D01*
X032806Y022926D01*
X032848Y022883D01*
X032848Y022800D02*
X032806Y022757D01*
X032806Y022672D01*
X032848Y022629D01*
X033019Y022629D01*
X033061Y022883D02*
X033061Y023054D01*
X033019Y023137D02*
X032848Y023308D01*
X033019Y023308D01*
X033061Y023265D01*
X033061Y023180D01*
X033019Y023137D01*
X032848Y023137D01*
X032806Y023180D01*
X032806Y023265D01*
X032848Y023308D01*
X032408Y023373D02*
X032323Y023331D01*
X032237Y023246D01*
X032365Y023246D01*
X032408Y023203D01*
X032408Y023160D01*
X032365Y023118D01*
X032280Y023118D01*
X032237Y023160D01*
X032237Y023246D01*
X032154Y023288D02*
X032154Y023331D01*
X032112Y023373D01*
X032026Y023373D01*
X031984Y023331D01*
X031900Y023331D02*
X031900Y023246D01*
X031858Y023203D01*
X031730Y023203D01*
X031729Y023246D02*
X031558Y023246D01*
X031686Y023373D01*
X031686Y023118D01*
X031730Y023118D02*
X031730Y023373D01*
X031858Y023373D01*
X031900Y023331D01*
X031815Y023203D02*
X031900Y023118D01*
X031984Y023118D02*
X032154Y023288D01*
X032154Y023118D02*
X031984Y023118D01*
X031475Y023118D02*
X031305Y023118D01*
X031475Y023288D01*
X031475Y023331D01*
X031432Y023373D01*
X031347Y023373D01*
X031305Y023331D01*
X031221Y023331D02*
X031221Y023246D01*
X031179Y023203D01*
X031051Y023203D01*
X031136Y023203D02*
X031221Y023118D01*
X031051Y023118D02*
X031051Y023373D01*
X031179Y023373D01*
X031221Y023331D01*
X030453Y022989D02*
X030411Y023032D01*
X030240Y023032D01*
X030197Y022989D01*
X030197Y022904D01*
X030240Y022861D01*
X030283Y022861D01*
X030325Y022904D01*
X030325Y023032D01*
X030453Y022989D02*
X030453Y022904D01*
X030411Y022861D01*
X030453Y022778D02*
X030453Y022608D01*
X030453Y022693D02*
X030197Y022693D01*
X030283Y022608D01*
X030240Y022524D02*
X030197Y022482D01*
X030197Y022397D01*
X030240Y022354D01*
X030411Y022354D01*
X030453Y022397D01*
X030453Y022482D01*
X030411Y022524D01*
X033176Y019806D02*
X033176Y019721D01*
X033219Y019678D01*
X033261Y019678D01*
X033304Y019721D01*
X033304Y019849D01*
X033389Y019849D02*
X033219Y019849D01*
X033176Y019806D01*
X033219Y019595D02*
X033176Y019553D01*
X033176Y019467D01*
X033219Y019425D01*
X033389Y019425D01*
X033432Y019467D01*
X033432Y019553D01*
X033389Y019595D01*
X033389Y019678D02*
X033432Y019721D01*
X033432Y019806D01*
X033389Y019849D01*
X033432Y019341D02*
X033432Y019256D01*
X033432Y019298D02*
X033176Y019298D01*
X033176Y019256D02*
X033176Y019341D01*
X034417Y019220D02*
X034545Y019220D01*
X034587Y019177D01*
X034587Y019092D01*
X034545Y019049D01*
X034417Y019049D01*
X034417Y018964D02*
X034417Y019220D01*
X034502Y019049D02*
X034587Y018964D01*
X034671Y018964D02*
X034841Y018964D01*
X034756Y018964D02*
X034756Y019220D01*
X034671Y019135D01*
X035179Y019159D02*
X035264Y019159D01*
X035221Y019159D02*
X035221Y019414D01*
X035179Y019414D02*
X035264Y019414D01*
X035348Y019372D02*
X035348Y019201D01*
X035391Y019159D01*
X035476Y019159D01*
X035518Y019201D01*
X035602Y019201D02*
X035602Y019159D01*
X035602Y019201D02*
X035772Y019372D01*
X035772Y019414D01*
X035602Y019414D01*
X035518Y019372D02*
X035476Y019414D01*
X035391Y019414D01*
X035348Y019372D01*
X035313Y018167D02*
X035440Y018167D01*
X035483Y018124D01*
X035483Y018039D01*
X035440Y017996D01*
X035313Y017996D01*
X035398Y017996D02*
X035483Y017911D01*
X035566Y017911D02*
X035737Y018082D01*
X035737Y018124D01*
X035694Y018167D01*
X035609Y018167D01*
X035566Y018124D01*
X035566Y017911D02*
X035737Y017911D01*
X035313Y017911D02*
X035313Y018167D01*
X033734Y017700D02*
X033649Y017657D01*
X033564Y017572D01*
X033691Y017572D01*
X033734Y017529D01*
X033734Y017487D01*
X033691Y017444D01*
X033606Y017444D01*
X033564Y017487D01*
X033564Y017572D01*
X033480Y017615D02*
X033438Y017572D01*
X033480Y017529D01*
X033480Y017487D01*
X033438Y017444D01*
X033352Y017444D01*
X033310Y017487D01*
X033227Y017487D02*
X033184Y017444D01*
X033099Y017444D01*
X033056Y017487D01*
X033056Y017657D01*
X033099Y017700D01*
X033184Y017700D01*
X033227Y017657D01*
X033310Y017657D02*
X033352Y017700D01*
X033438Y017700D01*
X033480Y017657D01*
X033480Y017615D01*
X033438Y017572D02*
X033395Y017572D01*
X030854Y018339D02*
X030854Y018424D01*
X030812Y018467D01*
X030812Y018550D02*
X030854Y018593D01*
X030854Y018678D01*
X030812Y018720D01*
X030769Y018720D01*
X030726Y018678D01*
X030726Y018635D01*
X030726Y018678D02*
X030684Y018720D01*
X030641Y018720D01*
X030599Y018678D01*
X030599Y018593D01*
X030641Y018550D01*
X030641Y018467D02*
X030599Y018424D01*
X030599Y018339D01*
X030641Y018296D01*
X030812Y018296D01*
X030854Y018339D01*
X030854Y018804D02*
X030684Y018974D01*
X030641Y018974D01*
X030599Y018932D01*
X030599Y018846D01*
X030641Y018804D01*
X030854Y018804D02*
X030854Y018974D01*
X029065Y018840D02*
X028810Y018840D01*
X027702Y018553D02*
X027702Y018383D01*
X027531Y018553D01*
X027488Y018553D01*
X027446Y018511D01*
X027446Y018425D01*
X027488Y018383D01*
X027488Y018300D02*
X027659Y018300D01*
X027702Y018257D01*
X027702Y018172D01*
X027659Y018129D01*
X027488Y018129D01*
X027446Y018172D01*
X027446Y018257D01*
X027488Y018300D01*
X027616Y018214D02*
X027702Y018300D01*
X026638Y018620D02*
X026596Y018577D01*
X026510Y018577D01*
X026468Y018620D01*
X026385Y018620D02*
X026342Y018577D01*
X026257Y018577D01*
X026214Y018620D01*
X026214Y018790D01*
X026257Y018833D01*
X026342Y018833D01*
X026385Y018790D01*
X026468Y018833D02*
X026468Y018705D01*
X026553Y018748D01*
X026596Y018748D01*
X026638Y018705D01*
X026638Y018620D01*
X026638Y018833D02*
X026468Y018833D01*
X026130Y018833D02*
X026045Y018833D01*
X026088Y018833D02*
X026088Y018577D01*
X026130Y018577D02*
X026045Y018577D01*
X027192Y016776D02*
X027149Y016734D01*
X027149Y016563D01*
X027192Y016520D01*
X027277Y016520D01*
X027319Y016563D01*
X027403Y016520D02*
X027573Y016691D01*
X027573Y016734D01*
X027531Y016776D01*
X027445Y016776D01*
X027403Y016734D01*
X027319Y016734D02*
X027277Y016776D01*
X027192Y016776D01*
X027403Y016520D02*
X027573Y016520D01*
X027656Y016648D02*
X027827Y016648D01*
X027784Y016520D02*
X027784Y016776D01*
X027656Y016648D01*
X027412Y016076D02*
X027455Y016033D01*
X027455Y015991D01*
X027412Y015948D01*
X027455Y015905D01*
X027455Y015863D01*
X027412Y015820D01*
X027327Y015820D01*
X027284Y015863D01*
X027201Y015820D02*
X027030Y015820D01*
X027201Y015991D01*
X027201Y016033D01*
X027158Y016076D01*
X027073Y016076D01*
X027030Y016033D01*
X026947Y016033D02*
X026904Y016076D01*
X026819Y016076D01*
X026776Y016033D01*
X026776Y015863D01*
X026819Y015820D01*
X026904Y015820D01*
X026947Y015863D01*
X027284Y016033D02*
X027327Y016076D01*
X027412Y016076D01*
X027412Y015948D02*
X027369Y015948D01*
X029299Y014970D02*
X029480Y014789D01*
X029600Y014910D01*
X029629Y014999D02*
X029689Y014999D01*
X029750Y015059D01*
X029750Y015120D01*
X029689Y015180D01*
X029629Y015180D01*
X029599Y015150D01*
X029569Y015059D01*
X029478Y015150D01*
X029599Y015270D01*
X024168Y017463D02*
X024126Y017420D01*
X023955Y017420D01*
X023912Y017463D01*
X023912Y017548D01*
X023955Y017591D01*
X024126Y017591D01*
X024168Y017548D01*
X024168Y017463D01*
X024083Y017506D02*
X024168Y017591D01*
X024168Y017674D02*
X024168Y017845D01*
X024168Y017759D02*
X023912Y017759D01*
X023998Y017674D01*
X023956Y018450D02*
X023870Y018450D01*
X023828Y018492D01*
X023828Y018535D01*
X023870Y018577D01*
X023956Y018577D01*
X023998Y018535D01*
X023998Y018492D01*
X023956Y018450D01*
X023956Y018577D02*
X023998Y018620D01*
X023998Y018663D01*
X023956Y018705D01*
X023870Y018705D01*
X023828Y018663D01*
X023828Y018620D01*
X023870Y018577D01*
X023744Y018577D02*
X023702Y018535D01*
X023574Y018535D01*
X023659Y018535D02*
X023744Y018450D01*
X023744Y018577D02*
X023744Y018663D01*
X023702Y018705D01*
X023574Y018705D01*
X023574Y018450D01*
X022873Y019207D02*
X022873Y019463D01*
X022745Y019335D01*
X022916Y019335D01*
X022662Y019335D02*
X022619Y019293D01*
X022491Y019293D01*
X022577Y019293D02*
X022662Y019207D01*
X022662Y019335D02*
X022662Y019421D01*
X022619Y019463D01*
X022491Y019463D01*
X022491Y019207D01*
X023249Y019870D02*
X023292Y019828D01*
X023377Y019828D01*
X023420Y019870D01*
X023503Y019955D02*
X023673Y019955D01*
X023631Y019828D02*
X023631Y020083D01*
X023503Y019955D01*
X023420Y020041D02*
X023377Y020083D01*
X023292Y020083D01*
X023249Y020041D01*
X023249Y019870D01*
X024228Y022031D02*
X024398Y022031D01*
X024481Y022031D02*
X024609Y022031D01*
X024652Y022073D01*
X024652Y022244D01*
X024609Y022286D01*
X024481Y022286D01*
X024481Y022031D01*
X024398Y022244D02*
X024228Y022073D01*
X024228Y022031D01*
X024228Y022286D02*
X024398Y022286D01*
X024398Y022244D01*
X024735Y022244D02*
X024778Y022286D01*
X024863Y022286D01*
X024906Y022244D01*
X024906Y022201D01*
X024735Y022031D01*
X024906Y022031D01*
X023845Y022306D02*
X023674Y022306D01*
X023759Y022306D02*
X023759Y022562D01*
X023674Y022477D01*
X023591Y022519D02*
X023548Y022562D01*
X023420Y022562D01*
X023420Y022306D01*
X023548Y022306D01*
X023591Y022349D01*
X023591Y022519D01*
X022863Y023137D02*
X022692Y023137D01*
X022863Y023308D01*
X022863Y023351D01*
X022820Y023393D01*
X022735Y023393D01*
X022692Y023351D01*
X022609Y023351D02*
X022566Y023393D01*
X022481Y023393D01*
X022439Y023351D01*
X022439Y023180D01*
X022481Y023137D01*
X022566Y023137D01*
X022609Y023180D01*
X022316Y023158D02*
X022273Y023115D01*
X022316Y023158D02*
X022316Y023243D01*
X022273Y023286D01*
X022231Y023286D01*
X022188Y023243D01*
X022188Y023158D01*
X022145Y023115D01*
X022103Y023115D01*
X022060Y023158D01*
X022060Y023243D01*
X022103Y023286D01*
X022060Y023369D02*
X022316Y023369D01*
X022231Y023454D01*
X022316Y023540D01*
X022060Y023540D01*
X022145Y023623D02*
X022060Y023708D01*
X022316Y023708D01*
X022316Y023623D02*
X022316Y023793D01*
X021796Y023752D02*
X021753Y023710D01*
X021668Y023710D01*
X021625Y023752D01*
X021542Y023752D02*
X021542Y023923D01*
X021499Y023966D01*
X021371Y023966D01*
X021371Y023710D01*
X021499Y023710D01*
X021542Y023752D01*
X021625Y023838D02*
X021710Y023880D01*
X021753Y023880D01*
X021796Y023838D01*
X021796Y023752D01*
X021625Y023838D02*
X021625Y023966D01*
X021796Y023966D01*
X021168Y022766D02*
X021211Y022724D01*
X021211Y022638D01*
X021168Y022596D01*
X020998Y022766D01*
X021168Y022766D01*
X020998Y022766D02*
X020955Y022724D01*
X020955Y022638D01*
X020998Y022596D01*
X021168Y022596D01*
X021211Y022512D02*
X021211Y022342D01*
X021041Y022512D01*
X020998Y022512D01*
X020955Y022470D01*
X020955Y022385D01*
X020998Y022342D01*
X020998Y022259D02*
X021083Y022259D01*
X021126Y022216D01*
X021126Y022088D01*
X021211Y022088D02*
X020955Y022088D01*
X020955Y022216D01*
X020998Y022259D01*
X021126Y022173D02*
X021211Y022259D01*
X021193Y020467D02*
X021023Y020467D01*
X021023Y020339D01*
X021108Y020382D01*
X021150Y020382D01*
X021193Y020339D01*
X021193Y020254D01*
X021150Y020211D01*
X021065Y020211D01*
X021023Y020254D01*
X020939Y020211D02*
X020854Y020297D01*
X020897Y020297D02*
X020769Y020297D01*
X020769Y020211D02*
X020769Y020467D01*
X020897Y020467D01*
X020939Y020425D01*
X020939Y020339D01*
X020897Y020297D01*
X020932Y019520D02*
X020847Y019435D01*
X020932Y019520D02*
X020932Y019264D01*
X020847Y019264D02*
X021018Y019264D01*
X020764Y019264D02*
X020593Y019264D01*
X020593Y019520D01*
X019260Y019433D02*
X019260Y019263D01*
X019218Y019220D01*
X019133Y019220D01*
X019090Y019263D01*
X019007Y019263D02*
X018964Y019220D01*
X018879Y019220D01*
X018836Y019263D01*
X018836Y019433D01*
X018879Y019476D01*
X018964Y019476D01*
X019007Y019433D01*
X019090Y019433D02*
X019090Y019391D01*
X019133Y019348D01*
X019260Y019348D01*
X019260Y019433D02*
X019218Y019476D01*
X019133Y019476D01*
X019090Y019433D01*
X018329Y018879D02*
X018329Y018836D01*
X018158Y018665D01*
X018158Y018623D01*
X018075Y018665D02*
X018033Y018623D01*
X017947Y018623D01*
X017905Y018665D01*
X017905Y018836D01*
X017947Y018879D01*
X018033Y018879D01*
X018075Y018836D01*
X018158Y018879D02*
X018329Y018879D01*
X016784Y018984D02*
X016784Y019027D01*
X016741Y019070D01*
X016613Y019070D01*
X016613Y018984D01*
X016656Y018942D01*
X016741Y018942D01*
X016784Y018984D01*
X016698Y019155D02*
X016613Y019070D01*
X016698Y019155D02*
X016784Y019198D01*
X016445Y019198D02*
X016445Y018942D01*
X016530Y018942D02*
X016359Y018942D01*
X016276Y018942D02*
X016191Y019027D01*
X016234Y019027D02*
X016106Y019027D01*
X016106Y018942D02*
X016106Y019198D01*
X016234Y019198D01*
X016276Y019155D01*
X016276Y019070D01*
X016234Y019027D01*
X016359Y019112D02*
X016445Y019198D01*
X016487Y020391D02*
X016402Y020477D01*
X016444Y020477D02*
X016316Y020477D01*
X016316Y020391D02*
X016316Y020647D01*
X016444Y020647D01*
X016487Y020604D01*
X016487Y020519D01*
X016444Y020477D01*
X016570Y020562D02*
X016656Y020647D01*
X016656Y020391D01*
X016741Y020391D02*
X016570Y020391D01*
X016824Y020434D02*
X016867Y020391D01*
X016952Y020391D01*
X016995Y020434D01*
X016995Y020519D01*
X016952Y020562D01*
X016909Y020562D01*
X016824Y020519D01*
X016824Y020647D01*
X016995Y020647D01*
X016282Y020676D02*
X016239Y020633D01*
X016154Y020633D01*
X016111Y020676D01*
X016111Y020718D01*
X016154Y020761D01*
X016239Y020761D01*
X016282Y020718D01*
X016282Y020676D01*
X016239Y020761D02*
X016282Y020804D01*
X016282Y020846D01*
X016239Y020889D01*
X016154Y020889D01*
X016111Y020846D01*
X016111Y020804D01*
X016154Y020761D01*
X016028Y020846D02*
X015985Y020889D01*
X015900Y020889D01*
X015857Y020846D01*
X015857Y020676D01*
X015900Y020633D01*
X015985Y020633D01*
X016028Y020676D01*
X014581Y020281D02*
X014411Y020281D01*
X014539Y020409D01*
X014539Y020153D01*
X014328Y020195D02*
X014285Y020153D01*
X014200Y020153D01*
X014157Y020195D01*
X014157Y020366D01*
X014200Y020409D01*
X014285Y020409D01*
X014328Y020366D01*
X014073Y020409D02*
X013988Y020409D01*
X014030Y020409D02*
X014030Y020153D01*
X013988Y020153D02*
X014073Y020153D01*
X014570Y019070D02*
X014698Y019070D01*
X014741Y019027D01*
X014741Y018942D01*
X014698Y018899D01*
X014570Y018899D01*
X014570Y018814D02*
X014570Y019070D01*
X014655Y018899D02*
X014741Y018814D01*
X014824Y018814D02*
X014994Y018814D01*
X014909Y018814D02*
X014909Y019070D01*
X014824Y018984D01*
X015078Y019027D02*
X015078Y018856D01*
X015248Y019027D01*
X015248Y018856D01*
X015206Y018814D01*
X015120Y018814D01*
X015078Y018856D01*
X015078Y019027D02*
X015120Y019070D01*
X015206Y019070D01*
X015248Y019027D01*
X014470Y018705D02*
X014470Y018662D01*
X014300Y018491D01*
X014300Y018449D01*
X014216Y018491D02*
X014174Y018449D01*
X014088Y018449D01*
X014046Y018491D01*
X013963Y018491D02*
X013920Y018449D01*
X013835Y018449D01*
X013792Y018491D01*
X013792Y018662D01*
X013835Y018705D01*
X013920Y018705D01*
X013963Y018662D01*
X014046Y018662D02*
X014088Y018705D01*
X014174Y018705D01*
X014216Y018662D01*
X014216Y018619D01*
X014174Y018577D01*
X014216Y018534D01*
X014216Y018491D01*
X014174Y018577D02*
X014131Y018577D01*
X014300Y018705D02*
X014470Y018705D01*
X013583Y017431D02*
X013583Y017261D01*
X013413Y017431D01*
X013370Y017431D01*
X013327Y017389D01*
X013327Y017303D01*
X013370Y017261D01*
X013370Y017178D02*
X013327Y017135D01*
X013327Y017007D01*
X013583Y017007D01*
X013583Y017135D01*
X013540Y017178D01*
X013370Y017178D01*
X014929Y016303D02*
X014929Y016133D01*
X014971Y016090D01*
X015057Y016090D01*
X015099Y016133D01*
X015182Y016090D02*
X015353Y016090D01*
X015436Y016090D02*
X015607Y016261D01*
X015607Y016303D01*
X015564Y016346D01*
X015479Y016346D01*
X015436Y016303D01*
X015268Y016346D02*
X015268Y016090D01*
X015436Y016090D02*
X015607Y016090D01*
X015268Y016346D02*
X015182Y016261D01*
X015099Y016303D02*
X015057Y016346D01*
X014971Y016346D01*
X014929Y016303D01*
X015155Y016641D02*
X015155Y016897D01*
X015283Y016897D01*
X015326Y016854D01*
X015326Y016769D01*
X015283Y016727D01*
X015155Y016727D01*
X015240Y016727D02*
X015326Y016641D01*
X015409Y016641D02*
X015579Y016641D01*
X015494Y016641D02*
X015494Y016897D01*
X015409Y016812D01*
X015663Y016769D02*
X015833Y016769D01*
X015936Y016763D02*
X015978Y016806D01*
X016063Y016806D01*
X016106Y016763D01*
X016106Y016635D01*
X016191Y016635D02*
X015936Y016635D01*
X015936Y016763D01*
X015978Y016889D02*
X015936Y016932D01*
X015936Y017017D01*
X015978Y017060D01*
X016021Y017060D01*
X016063Y017017D01*
X016106Y017060D01*
X016149Y017060D01*
X016191Y017017D01*
X016191Y016932D01*
X016149Y016889D01*
X016191Y016806D02*
X016106Y016721D01*
X016063Y016974D02*
X016063Y017017D01*
X015791Y016897D02*
X015663Y016769D01*
X015791Y016641D02*
X015791Y016897D01*
X016934Y017114D02*
X017019Y017114D01*
X016977Y017114D02*
X016977Y017370D01*
X017019Y017370D02*
X016934Y017370D01*
X017103Y017327D02*
X017103Y017157D01*
X017146Y017114D01*
X017231Y017114D01*
X017274Y017157D01*
X017357Y017114D02*
X017528Y017285D01*
X017528Y017327D01*
X017485Y017370D01*
X017400Y017370D01*
X017357Y017327D01*
X017274Y017327D02*
X017231Y017370D01*
X017146Y017370D01*
X017103Y017327D01*
X017357Y017114D02*
X017528Y017114D01*
X016596Y014995D02*
X016468Y014867D01*
X016638Y014867D01*
X016596Y014739D02*
X016596Y014995D01*
X016385Y014952D02*
X016342Y014995D01*
X016214Y014995D01*
X016214Y014739D01*
X016342Y014739D01*
X016385Y014782D01*
X016385Y014952D01*
X015791Y014985D02*
X015791Y015156D01*
X015791Y015239D02*
X015748Y015239D01*
X015577Y015410D01*
X015535Y015410D01*
X015535Y015239D01*
X015535Y015071D02*
X015791Y015071D01*
X015791Y014902D02*
X015705Y014817D01*
X015705Y014859D02*
X015705Y014732D01*
X015791Y014732D02*
X015535Y014732D01*
X015535Y014859D01*
X015577Y014902D01*
X015663Y014902D01*
X015705Y014859D01*
X015620Y014985D02*
X015535Y015071D01*
X013429Y012844D02*
X013344Y012844D01*
X013301Y012802D01*
X013429Y012844D02*
X013471Y012802D01*
X013471Y012759D01*
X013301Y012589D01*
X013471Y012589D01*
X013218Y012589D02*
X013047Y012589D01*
X013047Y012844D01*
X011337Y012531D02*
X011167Y012531D01*
X011167Y012403D01*
X011252Y012446D01*
X011295Y012446D01*
X011337Y012403D01*
X011337Y012318D01*
X011295Y012275D01*
X011209Y012275D01*
X011167Y012318D01*
X011083Y012275D02*
X010913Y012275D01*
X010998Y012275D02*
X010998Y012531D01*
X010913Y012446D01*
X010830Y012488D02*
X010787Y012531D01*
X010702Y012531D01*
X010659Y012488D01*
X010659Y012318D01*
X010702Y012275D01*
X010787Y012275D01*
X010830Y012318D01*
X010607Y011912D02*
X010650Y011869D01*
X010650Y011784D01*
X010607Y011742D01*
X010650Y011658D02*
X010650Y011488D01*
X010394Y011488D01*
X010437Y011742D02*
X010394Y011784D01*
X010394Y011869D01*
X010437Y011912D01*
X010480Y011912D01*
X010522Y011869D01*
X010565Y011912D01*
X010607Y011912D01*
X010522Y011869D02*
X010522Y011827D01*
X010143Y012236D02*
X010143Y012278D01*
X010314Y012449D01*
X010314Y012492D01*
X010143Y012492D01*
X009975Y012492D02*
X009975Y012236D01*
X010060Y012236D02*
X009889Y012236D01*
X009806Y012278D02*
X009763Y012236D01*
X009678Y012236D01*
X009636Y012278D01*
X009636Y012449D01*
X009678Y012492D01*
X009763Y012492D01*
X009806Y012449D01*
X009889Y012406D02*
X009975Y012492D01*
X008924Y013752D02*
X008967Y013794D01*
X008967Y013879D01*
X008924Y013922D01*
X008967Y014005D02*
X008967Y014176D01*
X008967Y014091D02*
X008711Y014091D01*
X008796Y014005D01*
X008754Y013922D02*
X008711Y013879D01*
X008711Y013794D01*
X008754Y013752D01*
X008924Y013752D01*
X008924Y014259D02*
X008882Y014259D01*
X008839Y014302D01*
X008839Y014387D01*
X008882Y014430D01*
X008924Y014430D01*
X008967Y014387D01*
X008967Y014302D01*
X008924Y014259D01*
X008839Y014302D02*
X008796Y014259D01*
X008754Y014259D01*
X008711Y014302D01*
X008711Y014387D01*
X008754Y014430D01*
X008796Y014430D01*
X008839Y014387D01*
X008406Y015169D02*
X008150Y015169D01*
X008150Y015297D01*
X008193Y015339D01*
X008278Y015339D01*
X008321Y015297D01*
X008321Y015169D01*
X008321Y015254D02*
X008406Y015339D01*
X008406Y015423D02*
X008363Y015423D01*
X008193Y015593D01*
X008150Y015593D01*
X008150Y015423D01*
X008150Y016419D02*
X008150Y016547D01*
X008193Y016589D01*
X008278Y016589D01*
X008321Y016547D01*
X008321Y016419D01*
X008406Y016419D02*
X008150Y016419D01*
X008321Y016504D02*
X008406Y016589D01*
X008406Y016673D02*
X008235Y016843D01*
X008193Y016843D01*
X008150Y016801D01*
X008150Y016715D01*
X008193Y016673D01*
X008406Y016673D02*
X008406Y016843D01*
X008363Y016926D02*
X008406Y016969D01*
X008406Y017054D01*
X008363Y017097D01*
X008321Y017097D01*
X008278Y017054D01*
X008278Y017012D01*
X008278Y017054D02*
X008235Y017097D01*
X008193Y017097D01*
X008150Y017054D01*
X008150Y016969D01*
X008193Y016926D01*
X008317Y017433D02*
X008317Y017561D01*
X008360Y017603D01*
X008445Y017603D01*
X008488Y017561D01*
X008488Y017433D01*
X008488Y017518D02*
X008573Y017603D01*
X008531Y017686D02*
X008573Y017729D01*
X008573Y017814D01*
X008531Y017857D01*
X008360Y017857D01*
X008317Y017814D01*
X008317Y017729D01*
X008360Y017686D01*
X008403Y017686D01*
X008445Y017729D01*
X008445Y017857D01*
X008573Y017433D02*
X008317Y017433D01*
X009109Y018339D02*
X009364Y018339D01*
X009364Y018510D01*
X009322Y018593D02*
X009364Y018635D01*
X009364Y018721D01*
X009322Y018763D01*
X009364Y018847D02*
X009364Y018975D01*
X009322Y019017D01*
X009151Y019017D01*
X009109Y018975D01*
X009109Y018847D01*
X009364Y018847D01*
X009151Y018763D02*
X009109Y018721D01*
X009109Y018635D01*
X009151Y018593D01*
X009322Y018593D01*
X009633Y018541D02*
X009633Y018285D01*
X009633Y018370D02*
X009761Y018370D01*
X009804Y018413D01*
X009804Y018498D01*
X009761Y018541D01*
X009633Y018541D01*
X009719Y018370D02*
X009804Y018285D01*
X009887Y018328D02*
X009930Y018285D01*
X010015Y018285D01*
X010058Y018328D01*
X010058Y018370D01*
X010015Y018413D01*
X009887Y018413D01*
X009887Y018328D01*
X009887Y018413D02*
X009972Y018498D01*
X010058Y018541D01*
X010340Y018592D02*
X010511Y018592D01*
X010511Y018549D01*
X010340Y018378D01*
X010340Y018336D01*
X010511Y018336D01*
X010594Y018336D02*
X010722Y018336D01*
X010765Y018378D01*
X010765Y018549D01*
X010722Y018592D01*
X010594Y018592D01*
X010594Y018336D01*
X010848Y018336D02*
X011018Y018336D01*
X010933Y018336D02*
X010933Y018592D01*
X010848Y018506D01*
X010920Y017173D02*
X011006Y017173D01*
X010963Y017173D02*
X010963Y016917D01*
X010920Y016917D02*
X011006Y016917D01*
X011090Y016960D02*
X011132Y016917D01*
X011218Y016917D01*
X011260Y016960D01*
X011343Y016960D02*
X011386Y016917D01*
X011471Y016917D01*
X011514Y016960D01*
X011514Y017003D01*
X011471Y017045D01*
X011429Y017045D01*
X011471Y017045D02*
X011514Y017088D01*
X011514Y017130D01*
X011471Y017173D01*
X011386Y017173D01*
X011343Y017130D01*
X011260Y017130D02*
X011218Y017173D01*
X011132Y017173D01*
X011090Y017130D01*
X011090Y016960D01*
X010489Y016667D02*
X010446Y016710D01*
X010361Y016710D01*
X010318Y016667D01*
X010235Y016667D02*
X010192Y016710D01*
X010107Y016710D01*
X010064Y016667D01*
X009981Y016667D02*
X009981Y016582D01*
X009938Y016540D01*
X009811Y016540D01*
X009896Y016540D02*
X009981Y016454D01*
X010064Y016454D02*
X010235Y016625D01*
X010235Y016667D01*
X010215Y016786D02*
X010130Y016786D01*
X010088Y016829D01*
X010258Y016999D01*
X010258Y016829D01*
X010215Y016786D01*
X010088Y016829D02*
X010088Y016999D01*
X010130Y017042D01*
X010215Y017042D01*
X010258Y016999D01*
X010004Y016786D02*
X009834Y016786D01*
X009811Y016710D02*
X009938Y016710D01*
X009981Y016667D01*
X009919Y016786D02*
X009919Y017042D01*
X009834Y016957D01*
X009751Y016999D02*
X009708Y017042D01*
X009623Y017042D01*
X009580Y016999D01*
X009580Y016829D01*
X009623Y016786D01*
X009708Y016786D01*
X009751Y016829D01*
X009811Y016710D02*
X009811Y016454D01*
X010064Y016454D02*
X010235Y016454D01*
X010318Y016454D02*
X010489Y016625D01*
X010489Y016667D01*
X010489Y016454D02*
X010318Y016454D01*
X010202Y015260D02*
X010202Y015005D01*
X010117Y015005D02*
X010288Y015005D01*
X010117Y015175D02*
X010202Y015260D01*
X009949Y015260D02*
X009949Y015005D01*
X010034Y015005D02*
X009863Y015005D01*
X009780Y015047D02*
X009737Y015005D01*
X009652Y015005D01*
X009610Y015047D01*
X009610Y015218D01*
X009652Y015260D01*
X009737Y015260D01*
X009780Y015218D01*
X009863Y015175D02*
X009949Y015260D01*
X006069Y015822D02*
X005899Y015822D01*
X005984Y015822D02*
X005984Y016077D01*
X005899Y015992D01*
X005816Y015950D02*
X005773Y015907D01*
X005645Y015907D01*
X005645Y015822D02*
X005645Y016077D01*
X005773Y016077D01*
X005816Y016035D01*
X005816Y015950D01*
X005562Y016077D02*
X005477Y016077D01*
X005519Y016077D02*
X005519Y015864D01*
X005477Y015822D01*
X005434Y015822D01*
X005391Y015864D01*
X007093Y020103D02*
X007264Y020103D01*
X007306Y020146D01*
X007306Y020231D01*
X007264Y020274D01*
X007264Y020357D02*
X007306Y020400D01*
X007306Y020485D01*
X007264Y020528D01*
X007178Y020528D01*
X007136Y020485D01*
X007136Y020442D01*
X007178Y020357D01*
X007051Y020357D01*
X007051Y020528D01*
X007093Y020274D02*
X007051Y020231D01*
X007051Y020146D01*
X007093Y020103D01*
X007180Y020950D02*
X007180Y021120D01*
X007137Y021204D02*
X007180Y021246D01*
X007180Y021332D01*
X007137Y021374D01*
X007180Y021457D02*
X007180Y021585D01*
X007137Y021628D01*
X006967Y021628D01*
X006924Y021585D01*
X006924Y021457D01*
X007180Y021457D01*
X006967Y021374D02*
X006924Y021332D01*
X006924Y021246D01*
X006967Y021204D01*
X007137Y021204D01*
X007180Y020950D02*
X006924Y020950D01*
X007009Y021711D02*
X006924Y021797D01*
X007180Y021797D01*
X007180Y021882D02*
X007180Y021711D01*
X007984Y022548D02*
X007984Y022804D01*
X008154Y022804D01*
X008238Y022762D02*
X008280Y022804D01*
X008365Y022804D01*
X008408Y022762D01*
X008408Y022719D01*
X008238Y022548D01*
X008408Y022548D01*
X008069Y022676D02*
X007984Y022676D01*
X007935Y023985D02*
X007935Y024241D01*
X008105Y024241D01*
X008188Y024156D02*
X008274Y024241D01*
X008274Y023985D01*
X008359Y023985D02*
X008188Y023985D01*
X008020Y024113D02*
X007935Y024113D01*
X009109Y020793D02*
X009364Y020793D01*
X009109Y020623D01*
X009364Y020623D01*
X009322Y020540D02*
X009151Y020540D01*
X009109Y020497D01*
X009109Y020412D01*
X009151Y020369D01*
X009322Y020369D01*
X009364Y020412D01*
X009364Y020497D01*
X009322Y020540D01*
X009322Y020286D02*
X009364Y020243D01*
X009364Y020158D01*
X009322Y020115D01*
X009151Y020115D01*
X009109Y020158D01*
X009109Y020243D01*
X009151Y020286D01*
X008916Y020195D02*
X008916Y019939D01*
X008831Y019939D02*
X009002Y019939D01*
X009109Y019778D02*
X009279Y019778D01*
X009364Y019693D01*
X009279Y019608D01*
X009109Y019608D01*
X009109Y019525D02*
X009109Y019354D01*
X009237Y019354D01*
X009194Y019439D01*
X009194Y019482D01*
X009237Y019525D01*
X009322Y019525D01*
X009364Y019482D01*
X009364Y019397D01*
X009322Y019354D01*
X008705Y019982D02*
X008705Y020195D01*
X008663Y020195D02*
X008748Y020195D01*
X008831Y020110D02*
X008916Y020195D01*
X008705Y019982D02*
X008663Y019939D01*
X008620Y019939D01*
X008577Y019982D01*
X008494Y019982D02*
X008451Y019939D01*
X008366Y019939D01*
X008324Y019982D01*
X008366Y020067D02*
X008451Y020067D01*
X008494Y020025D01*
X008494Y019982D01*
X008366Y020067D02*
X008324Y020110D01*
X008324Y020153D01*
X008366Y020195D01*
X008451Y020195D01*
X008494Y020153D01*
X011176Y022634D02*
X011219Y022592D01*
X011304Y022592D01*
X011347Y022634D01*
X011347Y022805D01*
X011304Y022848D01*
X011219Y022848D01*
X011176Y022805D01*
X011176Y022634D01*
X011262Y022677D02*
X011347Y022592D01*
X011430Y022720D02*
X011601Y022720D01*
X011558Y022848D02*
X011430Y022720D01*
X011558Y022592D02*
X011558Y022848D01*
X011838Y023511D02*
X011838Y023767D01*
X011966Y023767D01*
X012009Y023725D01*
X012009Y023639D01*
X011966Y023597D01*
X011838Y023597D01*
X011923Y023597D02*
X012009Y023511D01*
X012092Y023511D02*
X012262Y023511D01*
X012177Y023511D02*
X012177Y023767D01*
X012092Y023682D01*
X012346Y023682D02*
X012346Y023725D01*
X012388Y023767D01*
X012474Y023767D01*
X012516Y023725D01*
X012516Y023682D01*
X012474Y023639D01*
X012388Y023639D01*
X012346Y023682D01*
X012388Y023639D02*
X012346Y023597D01*
X012346Y023554D01*
X012388Y023511D01*
X012474Y023511D01*
X012516Y023554D01*
X012516Y023597D01*
X012474Y023639D01*
X013091Y023265D02*
X013134Y023307D01*
X013177Y023307D01*
X013219Y023265D01*
X013262Y023307D01*
X013305Y023307D01*
X013347Y023265D01*
X013347Y023179D01*
X013305Y023137D01*
X013305Y023054D02*
X013347Y023011D01*
X013347Y022926D01*
X013305Y022883D01*
X013134Y022883D01*
X013091Y022926D01*
X013091Y023011D01*
X013134Y023054D01*
X013305Y023054D01*
X013347Y023054D02*
X013262Y022968D01*
X013134Y023137D02*
X013091Y023179D01*
X013091Y023265D01*
X013219Y023265D02*
X013219Y023222D01*
X013659Y023241D02*
X013702Y023198D01*
X013787Y023198D01*
X013830Y023241D01*
X013913Y023198D02*
X014083Y023198D01*
X013998Y023198D02*
X013998Y023454D01*
X013913Y023369D01*
X013830Y023411D02*
X013787Y023454D01*
X013702Y023454D01*
X013659Y023411D01*
X013659Y023241D01*
X014167Y023326D02*
X014294Y023454D01*
X014294Y023198D01*
X014337Y023326D02*
X014167Y023326D01*
X016070Y022988D02*
X016070Y022817D01*
X016113Y022775D01*
X016198Y022775D01*
X016241Y022817D01*
X016324Y022817D02*
X016367Y022775D01*
X016452Y022775D01*
X016495Y022817D01*
X016495Y022860D01*
X016452Y022903D01*
X016324Y022903D01*
X016324Y022817D01*
X016324Y022903D02*
X016409Y022988D01*
X016495Y023031D01*
X016731Y023036D02*
X016731Y022951D01*
X016731Y022993D02*
X016944Y022993D01*
X016987Y022951D01*
X016987Y022908D01*
X016944Y022865D01*
X016901Y023119D02*
X016901Y023247D01*
X016859Y023290D01*
X016773Y023290D01*
X016731Y023247D01*
X016731Y023119D01*
X016987Y023119D01*
X016987Y023373D02*
X016816Y023543D01*
X016773Y023543D01*
X016731Y023501D01*
X016731Y023415D01*
X016773Y023373D01*
X016987Y023373D02*
X016987Y023543D01*
X016549Y023605D02*
X016507Y023562D01*
X016422Y023562D01*
X016379Y023605D01*
X016296Y023605D02*
X016296Y023775D01*
X016253Y023818D01*
X016125Y023818D01*
X016125Y023562D01*
X016253Y023562D01*
X016296Y023605D01*
X016464Y023690D02*
X016507Y023690D01*
X016549Y023647D01*
X016549Y023605D01*
X016507Y023690D02*
X016549Y023733D01*
X016549Y023775D01*
X016507Y023818D01*
X016422Y023818D01*
X016379Y023775D01*
X016198Y023031D02*
X016113Y023031D01*
X016070Y022988D01*
X016198Y023031D02*
X016241Y022988D01*
X019163Y021679D02*
X019163Y021594D01*
X019206Y021552D01*
X019163Y021468D02*
X019163Y021383D01*
X019163Y021426D02*
X019376Y021426D01*
X019419Y021383D01*
X019419Y021340D01*
X019376Y021298D01*
X019376Y021215D02*
X019419Y021172D01*
X019419Y021087D01*
X019376Y021044D01*
X019291Y021087D02*
X019291Y021172D01*
X019334Y021215D01*
X019376Y021215D01*
X019291Y021087D02*
X019248Y021044D01*
X019206Y021044D01*
X019163Y021087D01*
X019163Y021172D01*
X019206Y021215D01*
X019419Y021552D02*
X019248Y021722D01*
X019206Y021722D01*
X019163Y021679D01*
X019419Y021722D02*
X019419Y021552D01*
X019820Y017448D02*
X019948Y017448D01*
X019991Y017406D01*
X019991Y017320D01*
X019948Y017278D01*
X019820Y017278D01*
X019820Y017192D02*
X019820Y017448D01*
X019906Y017278D02*
X019991Y017192D01*
X020074Y017192D02*
X020245Y017192D01*
X020328Y017192D02*
X020498Y017192D01*
X020413Y017192D02*
X020413Y017448D01*
X020328Y017363D01*
X020159Y017448D02*
X020159Y017192D01*
X020074Y017363D02*
X020159Y017448D01*
X022684Y016670D02*
X022727Y016585D01*
X022812Y016499D01*
X022812Y016627D01*
X022855Y016670D01*
X022897Y016670D01*
X022940Y016627D01*
X022940Y016542D01*
X022897Y016499D01*
X022812Y016499D01*
X022897Y016416D02*
X022940Y016373D01*
X022940Y016288D01*
X022897Y016246D01*
X022727Y016246D01*
X022684Y016288D01*
X022684Y016373D01*
X022727Y016416D01*
X022684Y016162D02*
X022684Y016076D01*
X022684Y016119D02*
X022940Y016119D01*
X022940Y016076D02*
X022940Y016162D01*
X023481Y014443D02*
X023737Y014443D01*
X023737Y014528D02*
X023737Y014357D01*
X023694Y014274D02*
X023481Y014274D01*
X023567Y014357D02*
X023481Y014443D01*
X023694Y014274D02*
X023737Y014231D01*
X023737Y014146D01*
X023694Y014104D01*
X023481Y014104D01*
X023271Y013861D02*
X023228Y013904D01*
X023186Y013904D01*
X023143Y013861D01*
X023143Y013733D01*
X023228Y013733D01*
X023271Y013776D01*
X023271Y013861D01*
X023143Y013733D02*
X023058Y013818D01*
X023015Y013904D01*
X023015Y013565D02*
X023271Y013565D01*
X023271Y013650D02*
X023271Y013479D01*
X023228Y013396D02*
X023271Y013354D01*
X023271Y013268D01*
X023228Y013226D01*
X023058Y013226D01*
X023015Y013268D01*
X023015Y013354D01*
X023058Y013396D01*
X023100Y013479D02*
X023015Y013565D01*
X022146Y012680D02*
X022189Y012638D01*
X022189Y012595D01*
X022146Y012552D01*
X022189Y012510D01*
X022189Y012467D01*
X022146Y012424D01*
X022061Y012424D01*
X022018Y012467D01*
X021935Y012424D02*
X021764Y012424D01*
X021850Y012424D02*
X021850Y012680D01*
X021764Y012595D01*
X021681Y012638D02*
X021639Y012680D01*
X021553Y012680D01*
X021511Y012638D01*
X021511Y012467D01*
X021553Y012424D01*
X021639Y012424D01*
X021681Y012467D01*
X022018Y012638D02*
X022061Y012680D01*
X022146Y012680D01*
X022146Y012552D02*
X022104Y012552D01*
X021000Y013521D02*
X020830Y013521D01*
X020747Y013521D02*
X020576Y013521D01*
X020747Y013692D01*
X020747Y013734D01*
X020704Y013777D01*
X020619Y013777D01*
X020576Y013734D01*
X020493Y013734D02*
X020493Y013649D01*
X020450Y013606D01*
X020322Y013606D01*
X020322Y013521D02*
X020322Y013777D01*
X020450Y013777D01*
X020493Y013734D01*
X020408Y013606D02*
X020493Y013521D01*
X020830Y013692D02*
X020915Y013777D01*
X020915Y013521D01*
X020297Y014394D02*
X020127Y014394D01*
X020297Y014565D01*
X020297Y014608D01*
X020255Y014650D01*
X020170Y014650D01*
X020127Y014608D01*
X019958Y014650D02*
X019958Y014394D01*
X019873Y014394D02*
X020044Y014394D01*
X019873Y014565D02*
X019958Y014650D01*
X019790Y014608D02*
X019790Y014522D01*
X019747Y014480D01*
X019619Y014480D01*
X019619Y014394D02*
X019619Y014650D01*
X019747Y014650D01*
X019790Y014608D01*
X019705Y014480D02*
X019790Y014394D01*
X019042Y013455D02*
X018872Y013455D01*
X018829Y013413D01*
X018829Y013327D01*
X018872Y013285D01*
X018915Y013285D01*
X018957Y013327D01*
X018957Y013455D01*
X019042Y013455D02*
X019085Y013413D01*
X019085Y013327D01*
X019042Y013285D01*
X019085Y013201D02*
X019085Y013031D01*
X019085Y012948D02*
X019000Y012862D01*
X019000Y012905D02*
X019000Y012777D01*
X019085Y012777D02*
X018829Y012777D01*
X018829Y012905D01*
X018872Y012948D01*
X018957Y012948D01*
X019000Y012905D01*
X018915Y013031D02*
X018829Y013116D01*
X019085Y013116D01*
X016681Y010716D02*
X016681Y010546D01*
X016681Y010463D02*
X016681Y010292D01*
X016511Y010463D01*
X016468Y010463D01*
X016425Y010420D01*
X016425Y010335D01*
X016468Y010292D01*
X016468Y010209D02*
X016425Y010166D01*
X016425Y010081D01*
X016468Y010038D01*
X016639Y010038D01*
X016681Y010081D01*
X016681Y010166D01*
X016639Y010209D01*
X016511Y010546D02*
X016425Y010631D01*
X016681Y010631D01*
X015034Y010613D02*
X015034Y010528D01*
X014992Y010485D01*
X014949Y010485D01*
X014906Y010528D01*
X014906Y010613D01*
X014949Y010656D01*
X014992Y010656D01*
X015034Y010613D01*
X014906Y010613D02*
X014864Y010656D01*
X014821Y010656D01*
X014778Y010613D01*
X014778Y010528D01*
X014821Y010485D01*
X014864Y010485D01*
X014906Y010528D01*
X014864Y010402D02*
X014821Y010402D01*
X014778Y010359D01*
X014778Y010274D01*
X014821Y010231D01*
X014821Y010148D02*
X014778Y010106D01*
X014778Y010020D01*
X014821Y009978D01*
X014992Y009978D01*
X015034Y010020D01*
X015034Y010106D01*
X014992Y010148D01*
X015034Y010231D02*
X014864Y010402D01*
X015034Y010402D02*
X015034Y010231D01*
X013866Y009375D02*
X013866Y009332D01*
X013824Y009289D01*
X013738Y009289D01*
X013696Y009332D01*
X013696Y009375D01*
X013738Y009417D01*
X013824Y009417D01*
X013866Y009375D01*
X013824Y009289D02*
X013866Y009247D01*
X013866Y009204D01*
X013824Y009161D01*
X013738Y009161D01*
X013696Y009204D01*
X013696Y009247D01*
X013738Y009289D01*
X013613Y009204D02*
X013570Y009161D01*
X013485Y009161D01*
X013442Y009204D01*
X013442Y009375D01*
X013485Y009417D01*
X013570Y009417D01*
X013613Y009375D01*
X013358Y009417D02*
X013273Y009417D01*
X013315Y009417D02*
X013315Y009161D01*
X013273Y009161D02*
X013358Y009161D01*
X014743Y006229D02*
X014701Y006187D01*
X014701Y006101D01*
X014743Y006059D01*
X014743Y005975D02*
X014701Y005933D01*
X014701Y005848D01*
X014743Y005805D01*
X014743Y005722D02*
X014701Y005679D01*
X014701Y005594D01*
X014743Y005551D01*
X014914Y005551D01*
X014956Y005594D01*
X014956Y005679D01*
X014914Y005722D01*
X014956Y005805D02*
X014786Y005975D01*
X014743Y005975D01*
X014956Y005975D02*
X014956Y005805D01*
X014956Y006059D02*
X014786Y006229D01*
X014743Y006229D01*
X014956Y006229D02*
X014956Y006059D01*
X013987Y004944D02*
X013902Y004944D01*
X013859Y004901D01*
X013776Y004901D02*
X013776Y004816D01*
X013733Y004773D01*
X013605Y004773D01*
X013522Y004773D02*
X013522Y004944D01*
X013605Y004944D02*
X013733Y004944D01*
X013776Y004901D01*
X013691Y004773D02*
X013776Y004688D01*
X013859Y004688D02*
X014030Y004859D01*
X014030Y004901D01*
X013987Y004944D01*
X014030Y004688D02*
X013859Y004688D01*
X013605Y004688D02*
X013605Y004944D01*
X013522Y004773D02*
X013437Y004688D01*
X013352Y004773D01*
X013352Y004944D01*
X013005Y005007D02*
X012834Y005178D01*
X012792Y005178D01*
X012749Y005135D01*
X012749Y005050D01*
X012792Y005007D01*
X012749Y004924D02*
X012749Y004839D01*
X012749Y004881D02*
X012962Y004881D01*
X013005Y004839D01*
X013005Y004796D01*
X012962Y004753D01*
X013005Y005007D02*
X013005Y005178D01*
X009256Y004737D02*
X009085Y004737D01*
X009002Y004737D02*
X008917Y004823D01*
X008960Y004823D02*
X008832Y004823D01*
X008748Y004823D02*
X008748Y004993D01*
X008832Y004993D02*
X008960Y004993D01*
X009002Y004951D01*
X009002Y004865D01*
X008960Y004823D01*
X009085Y004908D02*
X009171Y004993D01*
X009171Y004737D01*
X008832Y004737D02*
X008832Y004993D01*
X008748Y004823D02*
X008663Y004737D01*
X008578Y004823D01*
X008578Y004993D01*
X008044Y005962D02*
X007959Y005962D01*
X007917Y006005D01*
X007833Y006005D02*
X007791Y005962D01*
X007705Y005962D01*
X007663Y006005D01*
X007580Y006005D02*
X007537Y005962D01*
X007452Y005962D01*
X007409Y006005D01*
X007409Y006175D01*
X007452Y006218D01*
X007537Y006218D01*
X007580Y006175D01*
X007663Y006175D02*
X007705Y006218D01*
X007791Y006218D01*
X007833Y006175D01*
X007833Y006133D01*
X007791Y006090D01*
X007833Y006047D01*
X007833Y006005D01*
X007791Y006090D02*
X007748Y006090D01*
X007917Y006090D02*
X008002Y006133D01*
X008044Y006133D01*
X008087Y006090D01*
X008087Y006005D01*
X008044Y005962D01*
X007917Y006090D02*
X007917Y006218D01*
X008087Y006218D01*
X006916Y006175D02*
X006873Y006218D01*
X006788Y006218D01*
X006745Y006175D01*
X006745Y006133D01*
X006788Y006090D01*
X006916Y006090D01*
X006916Y006005D02*
X006916Y006175D01*
X006916Y006005D02*
X006873Y005962D01*
X006788Y005962D01*
X006745Y006005D01*
X006662Y005962D02*
X006492Y005962D01*
X006662Y006133D01*
X006662Y006175D01*
X006619Y006218D01*
X006534Y006218D01*
X006492Y006175D01*
X006408Y006175D02*
X006408Y006090D01*
X006366Y006047D01*
X006238Y006047D01*
X006238Y005962D02*
X006238Y006218D01*
X006366Y006218D01*
X006408Y006175D01*
X006323Y006047D02*
X006408Y005962D01*
X005685Y006080D02*
X005515Y006080D01*
X005643Y006208D01*
X005643Y005952D01*
X005432Y005995D02*
X005389Y005952D01*
X005304Y005952D01*
X005261Y005995D01*
X005178Y005995D02*
X005135Y005952D01*
X005050Y005952D01*
X005007Y005995D01*
X005007Y006165D01*
X005050Y006208D01*
X005135Y006208D01*
X005178Y006165D01*
X005261Y006165D02*
X005304Y006208D01*
X005389Y006208D01*
X005432Y006165D01*
X005432Y006123D01*
X005389Y006080D01*
X005432Y006038D01*
X005432Y005995D01*
X005389Y006080D02*
X005346Y006080D01*
X004504Y006038D02*
X004504Y005995D01*
X004462Y005952D01*
X004376Y005952D01*
X004334Y005995D01*
X004334Y006038D01*
X004376Y006080D01*
X004462Y006080D01*
X004504Y006038D01*
X004462Y006080D02*
X004504Y006123D01*
X004504Y006165D01*
X004462Y006208D01*
X004376Y006208D01*
X004334Y006165D01*
X004334Y006123D01*
X004376Y006080D01*
X004251Y006123D02*
X004251Y006165D01*
X004208Y006208D01*
X004123Y006208D01*
X004080Y006165D01*
X003997Y006165D02*
X003997Y006080D01*
X003954Y006038D01*
X003826Y006038D01*
X003912Y006038D02*
X003997Y005952D01*
X004080Y005952D02*
X004251Y006123D01*
X004251Y005952D02*
X004080Y005952D01*
X003997Y006165D02*
X003954Y006208D01*
X003826Y006208D01*
X003826Y005952D01*
X005422Y003632D02*
X005464Y003547D01*
X005550Y003461D01*
X005550Y003589D01*
X005592Y003632D01*
X005635Y003632D01*
X005678Y003589D01*
X005678Y003504D01*
X005635Y003461D01*
X005550Y003461D01*
X005550Y003378D02*
X005592Y003336D01*
X005592Y003208D01*
X005678Y003208D02*
X005422Y003208D01*
X005422Y003336D01*
X005464Y003378D01*
X005550Y003378D01*
X005422Y003124D02*
X005422Y003039D01*
X005422Y003082D02*
X005635Y003082D01*
X005678Y003039D01*
X005678Y002997D01*
X005635Y002954D01*
X007981Y003049D02*
X007981Y003134D01*
X007981Y003092D02*
X008194Y003092D01*
X008237Y003049D01*
X008237Y003006D01*
X008194Y002964D01*
X008151Y003218D02*
X008151Y003345D01*
X008109Y003388D01*
X008023Y003388D01*
X007981Y003345D01*
X007981Y003218D01*
X008237Y003218D01*
X008237Y003471D02*
X008194Y003471D01*
X008023Y003642D01*
X007981Y003642D01*
X007981Y003471D01*
X008366Y007777D02*
X008537Y007777D01*
X008580Y007819D01*
X008580Y007905D01*
X008537Y007947D01*
X008537Y008030D02*
X008580Y008073D01*
X008580Y008158D01*
X008537Y008201D01*
X008494Y008201D01*
X008452Y008158D01*
X008452Y008116D01*
X008452Y008158D02*
X008409Y008201D01*
X008366Y008201D01*
X008324Y008158D01*
X008324Y008073D01*
X008366Y008030D01*
X008366Y007947D02*
X008324Y007905D01*
X008324Y007819D01*
X008366Y007777D01*
X008409Y008284D02*
X008324Y008370D01*
X008580Y008370D01*
X008580Y008455D02*
X008580Y008284D01*
X008517Y009686D02*
X008560Y009729D01*
X008560Y009814D01*
X008517Y009857D01*
X008517Y009940D02*
X008560Y009983D01*
X008560Y010068D01*
X008517Y010110D01*
X008475Y010110D01*
X008432Y010068D01*
X008432Y010025D01*
X008432Y010068D02*
X008389Y010110D01*
X008347Y010110D01*
X008304Y010068D01*
X008304Y009983D01*
X008347Y009940D01*
X008347Y009857D02*
X008304Y009814D01*
X008304Y009729D01*
X008347Y009686D01*
X008517Y009686D01*
X008517Y010194D02*
X008347Y010364D01*
X008517Y010364D01*
X008560Y010322D01*
X008560Y010236D01*
X008517Y010194D01*
X008347Y010194D01*
X008304Y010236D01*
X008304Y010322D01*
X008347Y010364D01*
X004012Y020541D02*
X003842Y020541D01*
X003927Y020541D02*
X003927Y020796D01*
X003842Y020711D01*
X003759Y020796D02*
X003673Y020796D01*
X003716Y020796D02*
X003716Y020583D01*
X003673Y020541D01*
X003631Y020541D01*
X003588Y020583D01*
X022960Y005771D02*
X023002Y005728D01*
X023045Y005728D01*
X023088Y005771D01*
X023088Y005984D01*
X023130Y005984D02*
X023045Y005984D01*
X023214Y005984D02*
X023341Y005984D01*
X023384Y005941D01*
X023384Y005856D01*
X023341Y005813D01*
X023214Y005813D01*
X023214Y005728D02*
X023214Y005984D01*
X023467Y005856D02*
X023638Y005856D01*
X023595Y005984D02*
X023467Y005856D01*
X023595Y005728D02*
X023595Y005984D01*
X034627Y007288D02*
X034669Y007246D01*
X034840Y007246D01*
X034882Y007288D01*
X034882Y007374D01*
X034840Y007416D01*
X034882Y007499D02*
X034882Y007670D01*
X034882Y007585D02*
X034627Y007585D01*
X034712Y007499D01*
X034669Y007416D02*
X034627Y007374D01*
X034627Y007288D01*
X035715Y004039D02*
X035672Y003997D01*
X035672Y003912D01*
X035715Y003869D01*
X035672Y003786D02*
X035928Y003786D01*
X035843Y003700D01*
X035928Y003615D01*
X035672Y003615D01*
X035715Y003532D02*
X035672Y003489D01*
X035672Y003404D01*
X035715Y003361D01*
X035757Y003361D01*
X035800Y003404D01*
X035800Y003489D01*
X035843Y003532D01*
X035885Y003532D01*
X035928Y003489D01*
X035928Y003404D01*
X035885Y003361D01*
X035915Y003012D02*
X035915Y002756D01*
X036000Y002756D02*
X035829Y002756D01*
X035746Y002799D02*
X035746Y002842D01*
X035703Y002884D01*
X035618Y002884D01*
X035576Y002927D01*
X035576Y002969D01*
X035618Y003012D01*
X035703Y003012D01*
X035746Y002969D01*
X035829Y002927D02*
X035915Y003012D01*
X035661Y003055D02*
X035661Y002714D01*
X035703Y002756D02*
X035746Y002799D01*
X035703Y002756D02*
X035618Y002756D01*
X035576Y002799D01*
X035492Y002799D02*
X035492Y003012D01*
X035322Y003012D02*
X035322Y002799D01*
X035364Y002756D01*
X035450Y002756D01*
X035492Y002799D01*
X035928Y003869D02*
X035757Y004039D01*
X035715Y004039D01*
X035928Y004039D02*
X035928Y003869D01*
X035814Y023003D02*
X035814Y023259D01*
X035942Y023259D01*
X035985Y023216D01*
X035985Y023131D01*
X035942Y023088D01*
X035814Y023088D01*
X035689Y023045D02*
X035689Y023259D01*
X035731Y023259D02*
X035646Y023259D01*
X035689Y023045D02*
X035646Y023003D01*
X035603Y023003D01*
X035561Y023045D01*
X036068Y023045D02*
X036111Y023003D01*
X036196Y023003D01*
X036239Y023045D01*
X036239Y023131D01*
X036196Y023173D01*
X036154Y023173D01*
X036068Y023131D01*
X036068Y023259D01*
X036239Y023259D01*
X026350Y024237D02*
X026308Y024194D01*
X026223Y024194D01*
X026180Y024237D01*
X026097Y024322D02*
X026054Y024280D01*
X025926Y024280D01*
X025926Y024194D02*
X025926Y024450D01*
X026054Y024450D01*
X026097Y024408D01*
X026097Y024322D01*
X026180Y024408D02*
X026223Y024450D01*
X026308Y024450D01*
X026350Y024408D01*
X026350Y024365D01*
X026308Y024322D01*
X026350Y024280D01*
X026350Y024237D01*
X026308Y024322D02*
X026265Y024322D01*
X025843Y024450D02*
X025758Y024450D01*
X025800Y024450D02*
X025800Y024237D01*
X025758Y024194D01*
X025715Y024194D01*
X025672Y024237D01*
D15*
X030263Y011625D03*
D16*
X020279Y021134D02*
X020279Y022234D01*
X020277Y022251D01*
X020273Y022268D01*
X020266Y022284D01*
X020256Y022298D01*
X020243Y022311D01*
X020229Y022321D01*
X020213Y022328D01*
X020196Y022332D01*
X020179Y022334D01*
X019579Y022334D01*
X019562Y022332D01*
X019545Y022328D01*
X019529Y022321D01*
X019515Y022311D01*
X019502Y022298D01*
X019492Y022284D01*
X019485Y022268D01*
X019481Y022251D01*
X019479Y022234D01*
X019479Y021134D01*
X019481Y021117D01*
X019485Y021100D01*
X019492Y021084D01*
X019502Y021070D01*
X019515Y021057D01*
X019529Y021047D01*
X019545Y021040D01*
X019562Y021036D01*
X019579Y021034D01*
X020179Y021034D01*
X020196Y021036D01*
X020213Y021040D01*
X020229Y021047D01*
X020243Y021057D01*
X020256Y021070D01*
X020266Y021084D01*
X020273Y021100D01*
X020277Y021117D01*
X020279Y021134D01*
X021007Y023883D02*
X020978Y023920D01*
X020946Y023955D01*
X020911Y023988D01*
X020874Y024018D01*
X020835Y024044D01*
X020794Y024067D01*
X020750Y024088D01*
X020706Y024104D01*
X020660Y024117D01*
X020614Y024126D01*
X020566Y024132D01*
X020519Y024134D01*
X020045Y023166D02*
X020075Y023131D01*
X020106Y023098D01*
X020141Y023068D01*
X020177Y023041D01*
X020215Y023017D01*
X020255Y022995D01*
X020297Y022977D01*
X020340Y022961D01*
X020384Y022949D01*
X020428Y022941D01*
X020474Y022936D01*
X020519Y022934D01*
X020039Y023894D02*
X020068Y023930D01*
X020100Y023964D01*
X020135Y023995D01*
X020171Y024023D01*
X020210Y024048D01*
X020251Y024071D01*
X020293Y024090D01*
X020336Y024106D01*
X020381Y024118D01*
X020427Y024127D01*
X020473Y024132D01*
X020519Y024134D01*
X020993Y023166D02*
X020963Y023131D01*
X020932Y023098D01*
X020897Y023068D01*
X020861Y023041D01*
X020823Y023017D01*
X020783Y022995D01*
X020741Y022977D01*
X020698Y022961D01*
X020654Y022949D01*
X020610Y022941D01*
X020564Y022936D01*
X020519Y022934D01*
X015355Y020856D02*
X015355Y020819D01*
X015355Y020856D02*
X014718Y020856D01*
X014718Y020819D01*
X014718Y020502D02*
X014718Y020091D01*
X014718Y019773D02*
X014718Y019736D01*
X015355Y019736D01*
X015355Y019773D01*
X015355Y020091D02*
X015355Y020128D01*
X015355Y020465D02*
X015355Y020502D01*
X015678Y023902D02*
X015648Y023937D01*
X015617Y023970D01*
X015582Y024000D01*
X015546Y024027D01*
X015508Y024051D01*
X015468Y024073D01*
X015426Y024091D01*
X015383Y024107D01*
X015339Y024119D01*
X015295Y024127D01*
X015249Y024132D01*
X015204Y024134D01*
X015684Y023174D02*
X015655Y023138D01*
X015623Y023104D01*
X015588Y023073D01*
X015552Y023045D01*
X015513Y023020D01*
X015472Y022997D01*
X015430Y022978D01*
X015387Y022962D01*
X015342Y022950D01*
X015296Y022941D01*
X015250Y022936D01*
X015204Y022934D01*
X014730Y023902D02*
X014760Y023937D01*
X014791Y023970D01*
X014826Y024000D01*
X014862Y024027D01*
X014900Y024051D01*
X014940Y024073D01*
X014982Y024091D01*
X015025Y024107D01*
X015069Y024119D01*
X015113Y024127D01*
X015159Y024132D01*
X015204Y024134D01*
X014716Y023185D02*
X014745Y023148D01*
X014777Y023113D01*
X014812Y023080D01*
X014849Y023050D01*
X014888Y023024D01*
X014929Y023001D01*
X014973Y022980D01*
X015017Y022964D01*
X015063Y022951D01*
X015109Y022942D01*
X015157Y022936D01*
X015204Y022934D01*
X008980Y019754D02*
X008980Y018654D01*
X008978Y018637D01*
X008974Y018620D01*
X008967Y018604D01*
X008957Y018590D01*
X008944Y018577D01*
X008930Y018567D01*
X008914Y018560D01*
X008897Y018556D01*
X008880Y018554D01*
X008280Y018554D01*
X008263Y018556D01*
X008246Y018560D01*
X008230Y018567D01*
X008216Y018577D01*
X008203Y018590D01*
X008193Y018604D01*
X008186Y018620D01*
X008182Y018637D01*
X008180Y018654D01*
X008180Y019754D01*
X008182Y019771D01*
X008186Y019788D01*
X008193Y019804D01*
X008203Y019818D01*
X008216Y019831D01*
X008230Y019841D01*
X008246Y019848D01*
X008263Y019852D01*
X008280Y019854D01*
X008880Y019854D01*
X008897Y019852D01*
X008914Y019848D01*
X008930Y019841D01*
X008944Y019831D01*
X008957Y019818D01*
X008967Y019804D01*
X008974Y019788D01*
X008978Y019771D01*
X008980Y019754D01*
X029312Y023668D02*
X029562Y023418D01*
X030062Y023418D01*
X030312Y023668D01*
X030562Y023418D01*
X031062Y023418D01*
X031312Y023668D01*
X031562Y023418D01*
X032062Y023418D01*
X032312Y023668D01*
X032562Y023418D01*
X033062Y023418D01*
X033312Y023668D01*
X033562Y023418D01*
X034062Y023418D01*
X034312Y023668D01*
X034562Y023418D01*
X035062Y023418D01*
X035312Y023668D01*
X035562Y023418D01*
X036062Y023418D01*
X036312Y023668D01*
X036312Y024168D01*
X036062Y024418D01*
X035562Y024418D01*
X035312Y024168D01*
X035062Y024418D01*
X034562Y024418D01*
X034312Y024168D01*
X034062Y024418D01*
X033562Y024418D01*
X033312Y024168D01*
X033062Y024418D01*
X032562Y024418D01*
X032312Y024168D01*
X032062Y024418D01*
X031562Y024418D01*
X031312Y024168D01*
X031062Y024418D01*
X030562Y024418D01*
X030312Y024168D01*
X030062Y024418D01*
X029562Y024418D01*
X029312Y024168D01*
X029312Y023668D01*
D17*
X030534Y023031D02*
X031034Y023031D01*
X031034Y021931D01*
X030534Y021931D01*
X030534Y023031D01*
X031095Y023031D02*
X031595Y023031D01*
X031595Y021931D01*
X031095Y021931D01*
X031095Y023031D01*
X031676Y023031D02*
X032176Y023031D01*
X032176Y021931D01*
X031676Y021931D01*
X031676Y023031D01*
X032257Y023031D02*
X032757Y023031D01*
X032757Y021931D01*
X032257Y021931D01*
X032257Y023031D01*
X032771Y021855D02*
X031671Y021855D01*
X031671Y021355D01*
X032771Y021355D01*
X032771Y021855D01*
X031600Y021855D02*
X031600Y021355D01*
X030500Y021355D01*
X030500Y021855D01*
X031600Y021855D01*
X033099Y020527D02*
X033099Y020027D01*
X034199Y020027D01*
X034199Y020527D01*
X033099Y020527D01*
X033259Y019245D02*
X033959Y019245D01*
X033959Y017785D01*
X033259Y017785D01*
X033259Y019245D01*
X033048Y019155D02*
X033048Y017462D01*
X031119Y017462D01*
X031119Y019155D01*
X033048Y019155D01*
X032595Y018820D02*
X032597Y018842D01*
X032603Y018864D01*
X032612Y018884D01*
X032625Y018902D01*
X032641Y018918D01*
X032659Y018931D01*
X032679Y018940D01*
X032701Y018946D01*
X032723Y018948D01*
X032745Y018946D01*
X032767Y018940D01*
X032787Y018931D01*
X032805Y018918D01*
X032821Y018902D01*
X032834Y018884D01*
X032843Y018864D01*
X032849Y018842D01*
X032851Y018820D01*
X032849Y018798D01*
X032843Y018776D01*
X032834Y018756D01*
X032821Y018738D01*
X032805Y018722D01*
X032787Y018709D01*
X032767Y018700D01*
X032745Y018694D01*
X032723Y018692D01*
X032701Y018694D01*
X032679Y018700D01*
X032659Y018709D01*
X032641Y018722D01*
X032625Y018738D01*
X032612Y018756D01*
X032603Y018776D01*
X032597Y018798D01*
X032595Y018820D01*
X034122Y018873D02*
X034122Y018373D01*
X035222Y018373D01*
X035222Y018873D01*
X034122Y018873D01*
X034122Y018292D02*
X035222Y018292D01*
X035222Y017792D01*
X034122Y017792D01*
X034122Y018292D01*
X033669Y015664D02*
X034769Y015664D01*
X034769Y015164D01*
X033669Y015164D01*
X033669Y015664D01*
X034485Y014194D02*
X034485Y009076D01*
X026454Y009076D01*
X026454Y014194D01*
X034485Y014194D01*
X031910Y015455D02*
X031410Y015455D01*
X031410Y016555D01*
X031910Y016555D01*
X031910Y015455D01*
X030473Y016055D02*
X029973Y016055D01*
X029973Y017155D01*
X030473Y017155D01*
X030473Y016055D01*
X029883Y016055D02*
X029383Y016055D01*
X029383Y017155D01*
X029883Y017155D01*
X029883Y016055D01*
X029461Y015970D02*
X029815Y015617D01*
X029037Y014839D01*
X028683Y015192D01*
X029461Y015970D01*
X029064Y015684D02*
X029064Y016384D01*
X027604Y016384D01*
X027604Y015684D01*
X029064Y015684D01*
X029012Y016464D02*
X029012Y016964D01*
X027912Y016964D01*
X027912Y016464D01*
X029012Y016464D01*
X029021Y017034D02*
X029021Y017534D01*
X027921Y017534D01*
X027921Y017034D01*
X029021Y017034D01*
X029112Y017241D02*
X029112Y017741D01*
X030212Y017741D01*
X030212Y017241D01*
X029112Y017241D01*
X029408Y018190D02*
X029408Y019490D01*
X028726Y019444D02*
X028726Y018944D01*
X027626Y018944D01*
X027626Y019444D01*
X028726Y019444D01*
X027359Y019686D02*
X027359Y021182D01*
X027320Y020932D02*
X025430Y020932D01*
X025391Y021182D02*
X025391Y020552D01*
X025391Y020316D02*
X025391Y019686D01*
X025430Y019936D02*
X027320Y019936D01*
X027320Y020133D02*
X025430Y020133D01*
X025262Y018863D02*
X024162Y018863D01*
X024162Y018363D01*
X025262Y018363D01*
X025262Y018863D01*
X023633Y020179D02*
X023133Y020179D01*
X023133Y021279D01*
X023633Y021279D01*
X023633Y020179D01*
X023003Y020669D02*
X023003Y019569D01*
X022503Y019569D01*
X022503Y020669D01*
X023003Y020669D01*
X022417Y020664D02*
X022417Y020164D01*
X021317Y020164D01*
X021317Y020664D01*
X022417Y020664D01*
X021812Y022138D02*
X021312Y022138D01*
X021312Y023238D01*
X021812Y023238D01*
X021812Y022138D01*
X022036Y022556D02*
X022036Y023056D01*
X023136Y023056D01*
X023136Y022556D01*
X022036Y022556D01*
X019642Y019119D02*
X018542Y019119D01*
X018542Y018619D01*
X019642Y018619D01*
X019642Y019119D01*
X019818Y018492D02*
X019818Y017592D01*
X017618Y017592D01*
X017618Y018492D01*
X019818Y018492D01*
X019875Y017116D02*
X020375Y017116D01*
X020375Y016016D01*
X019875Y016016D01*
X019875Y017116D01*
X020558Y016694D02*
X022487Y016694D01*
X022487Y015001D01*
X020558Y015001D01*
X020558Y016694D01*
X020375Y015866D02*
X019875Y015866D01*
X019875Y014766D01*
X020375Y014766D01*
X020375Y015866D01*
X018865Y014971D02*
X017369Y014971D01*
X016271Y015484D02*
X015771Y015484D01*
X015771Y016584D01*
X016271Y016584D01*
X016271Y015484D01*
X015468Y015458D02*
X015468Y014958D01*
X014368Y014958D01*
X014368Y015458D01*
X015468Y015458D01*
X015468Y015538D02*
X015468Y016038D01*
X014368Y016038D01*
X014368Y015538D01*
X015468Y015538D01*
X015104Y016375D02*
X014004Y016375D01*
X014004Y016875D01*
X015104Y016875D01*
X015104Y016375D01*
X015651Y017014D02*
X013713Y017014D01*
X013713Y018264D01*
X015651Y018264D01*
X015651Y017014D01*
X017369Y016940D02*
X017999Y016940D01*
X018235Y016940D02*
X018865Y016940D01*
X017132Y019279D02*
X017132Y019779D01*
X016032Y019779D01*
X016032Y019279D01*
X017132Y019279D01*
X017132Y019830D02*
X017132Y020330D01*
X016032Y020330D01*
X016032Y019830D01*
X017132Y019830D01*
X016325Y020959D02*
X015125Y020959D01*
X015125Y021759D02*
X016325Y021759D01*
X016335Y021865D02*
X015135Y021865D01*
X015135Y022665D02*
X016335Y022665D01*
X014344Y022599D02*
X014344Y021399D01*
X013544Y021399D02*
X013544Y022599D01*
X012486Y022901D02*
X012486Y023401D01*
X011386Y023401D01*
X011386Y022901D01*
X012486Y022901D01*
X014545Y019660D02*
X015645Y019660D01*
X015645Y019160D01*
X014545Y019160D01*
X014545Y019660D01*
X012704Y019309D02*
X011916Y019309D01*
X012310Y018769D01*
X012704Y019309D01*
X012940Y016861D02*
X011444Y016861D01*
X010380Y017123D02*
X010380Y017623D01*
X009280Y017623D01*
X009280Y017123D01*
X010380Y017123D01*
X010390Y016383D02*
X010390Y015883D01*
X009290Y015883D01*
X009290Y016383D01*
X010390Y016383D01*
X010390Y015832D02*
X010390Y015332D01*
X009290Y015332D01*
X009290Y015832D01*
X010390Y015832D01*
X009612Y016483D02*
X009612Y016983D01*
X008512Y016983D01*
X008512Y016483D01*
X009612Y016483D01*
X009027Y015994D02*
X008527Y015994D01*
X008527Y014894D01*
X009027Y014894D01*
X009027Y015994D01*
X009164Y017128D02*
X008664Y017128D01*
X008664Y018228D01*
X009164Y018228D01*
X009164Y017128D01*
X009280Y017723D02*
X009280Y018223D01*
X010380Y018223D01*
X010380Y017723D01*
X009280Y017723D01*
X006950Y019717D02*
X006450Y019717D01*
X006450Y020817D01*
X006950Y020817D01*
X006950Y019717D01*
X011444Y014893D02*
X012074Y014893D01*
X012310Y014893D02*
X012940Y014893D01*
X011549Y014802D02*
X010649Y014802D01*
X010649Y012602D01*
X011549Y012602D01*
X011549Y014802D01*
X010555Y014812D02*
X009655Y014812D01*
X009655Y012612D01*
X010555Y012612D01*
X010555Y014812D01*
X009548Y014636D02*
X009548Y013536D01*
X009048Y013536D01*
X009048Y014636D01*
X009548Y014636D01*
X010751Y012205D02*
X011251Y012205D01*
X011251Y011105D01*
X010751Y011105D01*
X010751Y012205D01*
X013869Y010886D02*
X013869Y009686D01*
X013816Y009036D02*
X014446Y009036D01*
X014682Y009036D02*
X015312Y009036D01*
X015195Y009636D02*
X015195Y010936D01*
X014669Y010886D02*
X014669Y009686D01*
X016295Y009636D02*
X016295Y010936D01*
X016471Y013052D02*
X016471Y013840D01*
X015930Y013446D01*
X016471Y013052D01*
X019166Y012630D02*
X019166Y013730D01*
X019666Y013730D01*
X019666Y012630D01*
X019166Y012630D01*
X019747Y012630D02*
X019747Y013730D01*
X020247Y013730D01*
X020247Y012630D01*
X019747Y012630D01*
X021516Y012784D02*
X021516Y014324D01*
X022316Y014324D01*
X022316Y012784D01*
X021516Y012784D01*
X022424Y013103D02*
X022424Y014203D01*
X022924Y014203D01*
X022924Y013103D01*
X022424Y013103D01*
X022713Y016950D02*
X022715Y016968D01*
X022721Y016984D01*
X022730Y016999D01*
X022743Y017012D01*
X022758Y017021D01*
X022774Y017027D01*
X022792Y017029D01*
X022810Y017027D01*
X022826Y017021D01*
X022841Y017012D01*
X022854Y016999D01*
X022863Y016984D01*
X022869Y016968D01*
X022871Y016950D01*
X022869Y016932D01*
X022863Y016916D01*
X022854Y016901D01*
X022841Y016888D01*
X022826Y016879D01*
X022810Y016873D01*
X022792Y016871D01*
X022774Y016873D01*
X022758Y016879D01*
X022743Y016888D01*
X022730Y016901D01*
X022721Y016916D01*
X022715Y016932D01*
X022713Y016950D01*
X030508Y018190D02*
X030508Y019490D01*
X034983Y008159D02*
X035483Y008159D01*
X035483Y007059D01*
X034983Y007059D01*
X034983Y008159D01*
X016138Y006507D02*
X016138Y005207D01*
X015038Y005207D02*
X015038Y006507D01*
X015312Y007068D02*
X013816Y007068D01*
X012586Y007088D02*
X012586Y002560D01*
X012330Y002560D01*
X010361Y002560D01*
X010105Y002560D01*
X010105Y007088D01*
X012586Y007088D01*
X008273Y005851D02*
X008273Y005351D01*
X007173Y005351D01*
X007173Y005851D01*
X008273Y005851D01*
X007102Y005851D02*
X007102Y005351D01*
X006002Y005351D01*
X006002Y005851D01*
X007102Y005851D01*
X005823Y005851D02*
X005823Y005351D01*
X004723Y005351D01*
X004723Y005851D01*
X005823Y005851D01*
X004661Y005851D02*
X004661Y005351D01*
X003561Y005351D01*
X003561Y005851D01*
X004661Y005851D01*
D18*
X015863Y021359D03*
X015873Y022265D03*
D19*
X013944Y021861D03*
X014269Y010149D03*
D20*
X006601Y021113D02*
X006601Y021763D01*
X006405Y021763D02*
X006405Y021113D01*
X006601Y021113D01*
X005814Y021613D02*
X005814Y024263D01*
X006405Y024263D01*
X006405Y023613D01*
X006601Y023613D02*
X006601Y024263D01*
X006405Y024263D01*
X005814Y024263D02*
X005814Y024460D01*
X001090Y024460D01*
X001090Y023948D01*
X001483Y023948D01*
X001090Y023948D02*
X001090Y021428D01*
X001483Y021428D01*
X001090Y021428D02*
X001090Y020916D01*
X004314Y020916D01*
X004239Y021428D02*
X004633Y021428D01*
X004633Y021664D01*
X004633Y022058D02*
X004633Y022294D01*
X004633Y023082D01*
X004633Y023318D01*
X004633Y023712D02*
X004633Y023948D01*
X004239Y023948D01*
X003845Y023948D02*
X003452Y023948D01*
X003058Y023948D02*
X002664Y023948D01*
X002468Y024263D02*
X002468Y024460D01*
X002468Y024263D02*
X005814Y024263D01*
X003845Y021428D02*
X003452Y021428D01*
X003058Y021428D02*
X002664Y021428D01*
X002271Y021428D02*
X001877Y021428D01*
X002468Y020916D02*
X002468Y024263D01*
X002271Y023948D02*
X001877Y023948D01*
X001877Y023082D02*
X001838Y023080D01*
X001800Y023074D01*
X001763Y023065D01*
X001726Y023052D01*
X001691Y023035D01*
X001658Y023016D01*
X001627Y022993D01*
X001598Y022967D01*
X001572Y022938D01*
X001549Y022907D01*
X001530Y022874D01*
X001513Y022839D01*
X001500Y022802D01*
X001491Y022765D01*
X001485Y022727D01*
X001483Y022688D01*
X001485Y022649D01*
X001491Y022611D01*
X001500Y022574D01*
X001513Y022537D01*
X001530Y022502D01*
X001549Y022469D01*
X001572Y022438D01*
X001598Y022409D01*
X001627Y022383D01*
X001658Y022360D01*
X001691Y022341D01*
X001726Y022324D01*
X001763Y022311D01*
X001800Y022302D01*
X001838Y022296D01*
X001877Y022294D01*
X033658Y016969D02*
X033658Y015788D01*
X035627Y015788D01*
X035627Y016969D01*
X033658Y016969D01*
X033524Y015631D02*
X033526Y015645D01*
X033532Y015659D01*
X033540Y015671D01*
X033552Y015679D01*
X033566Y015685D01*
X033580Y015687D01*
X033594Y015685D01*
X033608Y015679D01*
X033620Y015671D01*
X033628Y015659D01*
X033634Y015645D01*
X033636Y015631D01*
X033634Y015617D01*
X033628Y015603D01*
X033620Y015591D01*
X033608Y015583D01*
X033594Y015577D01*
X033580Y015575D01*
X033566Y015577D01*
X033552Y015583D01*
X033540Y015591D01*
X033532Y015603D01*
X033526Y015617D01*
X033524Y015631D01*
D21*
X027359Y019686D02*
X027320Y019686D01*
X027359Y021182D02*
X027320Y021182D01*
X025430Y021182D02*
X025391Y021182D01*
X025391Y020552D02*
X025430Y020552D01*
X025548Y020434D02*
X025546Y020414D01*
X025541Y020394D01*
X025532Y020375D01*
X025520Y020358D01*
X025506Y020344D01*
X025489Y020332D01*
X025470Y020323D01*
X025450Y020318D01*
X025430Y020316D01*
X025391Y020316D01*
X025548Y020434D02*
X025546Y020454D01*
X025541Y020474D01*
X025532Y020493D01*
X025520Y020510D01*
X025506Y020524D01*
X025489Y020536D01*
X025470Y020545D01*
X025450Y020550D01*
X025430Y020552D01*
X025391Y019686D02*
X025430Y019686D01*
X018865Y016940D02*
X018865Y016901D01*
X018235Y016901D02*
X018235Y016940D01*
X018117Y016783D02*
X018097Y016785D01*
X018077Y016790D01*
X018058Y016799D01*
X018041Y016811D01*
X018027Y016825D01*
X018015Y016842D01*
X018006Y016861D01*
X018001Y016881D01*
X017999Y016901D01*
X017999Y016940D01*
X018117Y016783D02*
X018137Y016785D01*
X018157Y016790D01*
X018176Y016799D01*
X018193Y016811D01*
X018207Y016825D01*
X018219Y016842D01*
X018228Y016861D01*
X018233Y016881D01*
X018235Y016901D01*
X017369Y016940D02*
X017369Y016901D01*
X017055Y016940D02*
X017057Y016952D01*
X017062Y016963D01*
X017071Y016972D01*
X017082Y016977D01*
X017094Y016979D01*
X017106Y016977D01*
X017117Y016972D01*
X017126Y016963D01*
X017131Y016952D01*
X017133Y016940D01*
X017131Y016928D01*
X017126Y016917D01*
X017117Y016908D01*
X017106Y016903D01*
X017094Y016901D01*
X017082Y016903D01*
X017071Y016908D01*
X017062Y016917D01*
X017057Y016928D01*
X017055Y016940D01*
X017369Y015011D02*
X017369Y014971D01*
X018865Y014971D02*
X018865Y015011D01*
X015312Y009036D02*
X015312Y008997D01*
X014682Y008997D02*
X014682Y009036D01*
X014564Y008879D02*
X014544Y008881D01*
X014524Y008886D01*
X014505Y008895D01*
X014488Y008907D01*
X014474Y008921D01*
X014462Y008938D01*
X014453Y008957D01*
X014448Y008977D01*
X014446Y008997D01*
X014446Y009036D01*
X014564Y008879D02*
X014584Y008881D01*
X014604Y008886D01*
X014623Y008895D01*
X014640Y008907D01*
X014654Y008921D01*
X014666Y008938D01*
X014675Y008957D01*
X014680Y008977D01*
X014682Y008997D01*
X013816Y009036D02*
X013816Y008997D01*
X013501Y009036D02*
X013503Y009048D01*
X013508Y009059D01*
X013517Y009068D01*
X013528Y009073D01*
X013540Y009075D01*
X013552Y009073D01*
X013563Y009068D01*
X013572Y009059D01*
X013577Y009048D01*
X013579Y009036D01*
X013577Y009024D01*
X013572Y009013D01*
X013563Y009004D01*
X013552Y008999D01*
X013540Y008997D01*
X013528Y008999D01*
X013517Y009004D01*
X013508Y009013D01*
X013503Y009024D01*
X013501Y009036D01*
X013816Y007107D02*
X013816Y007068D01*
X015312Y007068D02*
X015312Y007107D01*
X013088Y014765D02*
X013090Y014777D01*
X013095Y014788D01*
X013104Y014797D01*
X013115Y014802D01*
X013127Y014804D01*
X013139Y014802D01*
X013150Y014797D01*
X013159Y014788D01*
X013164Y014777D01*
X013166Y014765D01*
X013164Y014753D01*
X013159Y014742D01*
X013150Y014733D01*
X013139Y014728D01*
X013127Y014726D01*
X013115Y014728D01*
X013104Y014733D01*
X013095Y014742D01*
X013090Y014753D01*
X013088Y014765D01*
X012940Y014893D02*
X012940Y014932D01*
X012310Y014932D02*
X012310Y014893D01*
X012310Y014932D02*
X012308Y014952D01*
X012303Y014972D01*
X012294Y014991D01*
X012282Y015008D01*
X012268Y015022D01*
X012251Y015034D01*
X012232Y015043D01*
X012212Y015048D01*
X012192Y015050D01*
X012172Y015048D01*
X012152Y015043D01*
X012133Y015034D01*
X012116Y015022D01*
X012102Y015008D01*
X012090Y014991D01*
X012081Y014972D01*
X012076Y014952D01*
X012074Y014932D01*
X012074Y014893D01*
X011444Y014893D02*
X011444Y014932D01*
X011444Y016822D02*
X011444Y016861D01*
X012940Y016861D02*
X012940Y016822D01*
D22*
X013532Y017694D02*
X013532Y020497D01*
X011088Y020497D02*
X011088Y017694D01*
X014855Y014668D02*
X017659Y014668D01*
X017659Y012223D02*
X014855Y012223D01*
D23*
X015676Y013446D03*
D24*
X012310Y018515D03*
D25*
X015745Y010173D03*
X015588Y005971D03*
X029958Y018726D03*
M02*
