G75*
%MOIN*%
%OFA0B0*%
%FSLAX24Y24*%
%IPPOS*%
%LPD*%
%AMOC8*
5,1,8,0,0,1.08239X$1,22.5*
%
%ADD10R,0.0472X0.0217*%
%ADD11R,0.0315X0.0315*%
%ADD12R,0.0768X0.0591*%
%ADD13R,0.0591X0.0768*%
%ADD14R,0.0157X0.0472*%
%ADD15R,0.0969X0.0909*%
%ADD16R,0.0669X0.0945*%
%ADD17R,0.0591X0.0512*%
%ADD18R,0.0858X0.0638*%
%ADD19R,0.0630X0.0709*%
%ADD20R,0.0571X0.0315*%
%ADD21R,0.0354X0.0512*%
%ADD22C,0.0157*%
%ADD23R,0.0236X0.0433*%
%ADD24R,0.0866X0.0315*%
%ADD25R,0.1067X0.1457*%
%ADD26R,0.0709X0.0630*%
%ADD27R,0.1102X0.1496*%
%ADD28R,0.1496X0.1102*%
%ADD29R,0.0512X0.0472*%
%ADD30R,0.0394X0.0551*%
%ADD31R,0.0866X0.0236*%
%ADD32R,0.0900X0.0700*%
%ADD33R,0.0630X0.0630*%
%ADD34R,0.0433X0.0630*%
%ADD35R,0.1161X0.1063*%
%ADD36R,0.0236X0.0315*%
%ADD37R,0.0799X0.1299*%
%ADD38R,0.0315X0.0571*%
%ADD39R,0.0512X0.0354*%
%ADD40R,0.0630X0.0460*%
%ADD41R,0.0315X0.0315*%
%ADD42R,0.0472X0.0512*%
%ADD43R,0.0236X0.0866*%
%ADD44R,0.0315X0.0236*%
%ADD45R,0.0551X0.0394*%
%ADD46R,0.0630X0.1063*%
D10*
X014525Y019922D03*
X014525Y020670D03*
X015548Y020670D03*
X015548Y020296D03*
X015548Y019922D03*
D11*
X003811Y005601D03*
X004411Y005601D03*
X004973Y005601D03*
X005573Y005601D03*
X006252Y005601D03*
X006852Y005601D03*
X007423Y005601D03*
X008023Y005601D03*
X011001Y011355D03*
X011001Y011955D03*
X009298Y013786D03*
X009298Y014386D03*
X008777Y015144D03*
X008777Y015744D03*
X009540Y015582D03*
X009540Y016133D03*
X010140Y016133D03*
X010140Y015582D03*
X009362Y016733D03*
X008762Y016733D03*
X008914Y017378D03*
X008914Y017978D03*
X009530Y017973D03*
X010130Y017973D03*
X010130Y017373D03*
X009530Y017373D03*
X006700Y019967D03*
X006700Y020567D03*
X011636Y023151D03*
X012236Y023151D03*
X014795Y019410D03*
X015395Y019410D03*
X016282Y019529D03*
X016282Y020080D03*
X016882Y020080D03*
X016882Y019529D03*
X018792Y018869D03*
X019392Y018869D03*
X020125Y016866D03*
X020125Y016266D03*
X020125Y015616D03*
X020125Y015016D03*
X019997Y013480D03*
X019416Y013480D03*
X019416Y012880D03*
X019997Y012880D03*
X022674Y013353D03*
X022674Y013953D03*
X024412Y018613D03*
X025012Y018613D03*
X023383Y020429D03*
X023383Y021029D03*
X022753Y020419D03*
X022167Y020414D03*
X021567Y020414D03*
X022753Y019819D03*
X021562Y022388D03*
X021562Y022988D03*
X022286Y022806D03*
X022886Y022806D03*
X027876Y019194D03*
X028476Y019194D03*
X029362Y017491D03*
X028771Y017284D03*
X028762Y016714D03*
X028162Y016714D03*
X028171Y017284D03*
X029633Y016905D03*
X030223Y016905D03*
X030223Y016305D03*
X029633Y016305D03*
X029962Y017491D03*
X031660Y016305D03*
X031660Y015705D03*
X033919Y015414D03*
X034519Y015414D03*
X034372Y018042D03*
X034372Y018623D03*
X034972Y018623D03*
X034972Y018042D03*
X033949Y020277D03*
X033349Y020277D03*
X032521Y021605D03*
X032507Y022181D03*
X032507Y022781D03*
X031926Y022781D03*
X031345Y022781D03*
X030784Y022781D03*
X030784Y022181D03*
X031345Y022181D03*
X031926Y022181D03*
X031921Y021605D03*
X031350Y021605D03*
X030750Y021605D03*
X035233Y007909D03*
X035233Y007309D03*
X016021Y015734D03*
X016021Y016334D03*
X015218Y015788D03*
X014618Y015788D03*
X014854Y016625D03*
X014254Y016625D03*
X014618Y015208D03*
X015218Y015208D03*
D12*
X015075Y021359D03*
X015085Y022265D03*
X016385Y022265D03*
X016375Y021359D03*
D13*
X013944Y021349D03*
X013944Y022649D03*
X014269Y010936D03*
X014269Y009636D03*
D14*
X020627Y014706D03*
X020883Y014706D03*
X021139Y014706D03*
X021395Y014706D03*
X021651Y014706D03*
X021906Y014706D03*
X022162Y014706D03*
X022418Y014706D03*
X022418Y016989D03*
X022162Y016989D03*
X021906Y016989D03*
X021651Y016989D03*
X021395Y016989D03*
X021139Y016989D03*
X020883Y016989D03*
X020627Y016989D03*
X031188Y017166D03*
X031444Y017166D03*
X031700Y017166D03*
X031956Y017166D03*
X032212Y017166D03*
X032468Y017166D03*
X032723Y017166D03*
X032979Y017166D03*
X032979Y019450D03*
X032723Y019450D03*
X032468Y019450D03*
X032212Y019450D03*
X031956Y019450D03*
X031700Y019450D03*
X031444Y019450D03*
X031188Y019450D03*
D15*
X021523Y015847D03*
D16*
X022143Y018298D03*
X020568Y018298D03*
X013747Y013840D03*
X012172Y013840D03*
D17*
X021916Y013954D03*
X021916Y013154D03*
D18*
X024574Y019751D03*
X024574Y021412D03*
X028176Y021708D03*
X028176Y020046D03*
X010263Y020861D03*
X010263Y019200D03*
D19*
X018068Y018042D03*
X019368Y018042D03*
D20*
X022143Y024322D03*
X024800Y024322D03*
D21*
X024298Y023525D03*
X022645Y023525D03*
D22*
X026631Y014607D02*
X026631Y013977D01*
X026631Y014607D02*
X026789Y014607D01*
X026789Y013977D01*
X026631Y013977D01*
X026631Y014133D02*
X026789Y014133D01*
X026789Y014289D02*
X026631Y014289D01*
X026631Y014445D02*
X026789Y014445D01*
X026789Y014601D02*
X026631Y014601D01*
X027221Y014607D02*
X027221Y013977D01*
X027221Y014607D02*
X027379Y014607D01*
X027379Y013977D01*
X027221Y013977D01*
X027221Y014133D02*
X027379Y014133D01*
X027379Y014289D02*
X027221Y014289D01*
X027221Y014445D02*
X027379Y014445D01*
X027379Y014601D02*
X027221Y014601D01*
X027812Y014607D02*
X027812Y013977D01*
X027812Y014607D02*
X027970Y014607D01*
X027970Y013977D01*
X027812Y013977D01*
X027812Y014133D02*
X027970Y014133D01*
X027970Y014289D02*
X027812Y014289D01*
X027812Y014445D02*
X027970Y014445D01*
X027970Y014601D02*
X027812Y014601D01*
X028402Y014607D02*
X028402Y013977D01*
X028402Y014607D02*
X028560Y014607D01*
X028560Y013977D01*
X028402Y013977D01*
X028402Y014133D02*
X028560Y014133D01*
X028560Y014289D02*
X028402Y014289D01*
X028402Y014445D02*
X028560Y014445D01*
X028560Y014601D02*
X028402Y014601D01*
X028993Y014607D02*
X028993Y013977D01*
X028993Y014607D02*
X029151Y014607D01*
X029151Y013977D01*
X028993Y013977D01*
X028993Y014133D02*
X029151Y014133D01*
X029151Y014289D02*
X028993Y014289D01*
X028993Y014445D02*
X029151Y014445D01*
X029151Y014601D02*
X028993Y014601D01*
X029583Y014607D02*
X029583Y013977D01*
X029583Y014607D02*
X029741Y014607D01*
X029741Y013977D01*
X029583Y013977D01*
X029583Y014133D02*
X029741Y014133D01*
X029741Y014289D02*
X029583Y014289D01*
X029583Y014445D02*
X029741Y014445D01*
X029741Y014601D02*
X029583Y014601D01*
X030174Y014607D02*
X030174Y013977D01*
X030174Y014607D02*
X030332Y014607D01*
X030332Y013977D01*
X030174Y013977D01*
X030174Y014133D02*
X030332Y014133D01*
X030332Y014289D02*
X030174Y014289D01*
X030174Y014445D02*
X030332Y014445D01*
X030332Y014601D02*
X030174Y014601D01*
X030765Y014607D02*
X030765Y013977D01*
X030765Y014607D02*
X030923Y014607D01*
X030923Y013977D01*
X030765Y013977D01*
X030765Y014133D02*
X030923Y014133D01*
X030923Y014289D02*
X030765Y014289D01*
X030765Y014445D02*
X030923Y014445D01*
X030923Y014601D02*
X030765Y014601D01*
X031355Y014607D02*
X031355Y013977D01*
X031355Y014607D02*
X031513Y014607D01*
X031513Y013977D01*
X031355Y013977D01*
X031355Y014133D02*
X031513Y014133D01*
X031513Y014289D02*
X031355Y014289D01*
X031355Y014445D02*
X031513Y014445D01*
X031513Y014601D02*
X031355Y014601D01*
X031946Y014607D02*
X031946Y013977D01*
X031946Y014607D02*
X032104Y014607D01*
X032104Y013977D01*
X031946Y013977D01*
X031946Y014133D02*
X032104Y014133D01*
X032104Y014289D02*
X031946Y014289D01*
X031946Y014445D02*
X032104Y014445D01*
X032104Y014601D02*
X031946Y014601D01*
X032536Y014607D02*
X032536Y013977D01*
X032536Y014607D02*
X032694Y014607D01*
X032694Y013977D01*
X032536Y013977D01*
X032536Y014133D02*
X032694Y014133D01*
X032694Y014289D02*
X032536Y014289D01*
X032536Y014445D02*
X032694Y014445D01*
X032694Y014601D02*
X032536Y014601D01*
X033127Y014607D02*
X033127Y013977D01*
X033127Y014607D02*
X033285Y014607D01*
X033285Y013977D01*
X033127Y013977D01*
X033127Y014133D02*
X033285Y014133D01*
X033285Y014289D02*
X033127Y014289D01*
X033127Y014445D02*
X033285Y014445D01*
X033285Y014601D02*
X033127Y014601D01*
X033717Y014607D02*
X033717Y013977D01*
X033717Y014607D02*
X033875Y014607D01*
X033875Y013977D01*
X033717Y013977D01*
X033717Y014133D02*
X033875Y014133D01*
X033875Y014289D02*
X033717Y014289D01*
X033717Y014445D02*
X033875Y014445D01*
X033875Y014601D02*
X033717Y014601D01*
X034269Y013781D02*
X034899Y013781D01*
X034899Y013623D01*
X034269Y013623D01*
X034269Y013781D01*
X034269Y013779D02*
X034899Y013779D01*
X034899Y013190D02*
X034269Y013190D01*
X034899Y013190D02*
X034899Y013032D01*
X034269Y013032D01*
X034269Y013190D01*
X034269Y013188D02*
X034899Y013188D01*
X034899Y012600D02*
X034269Y012600D01*
X034899Y012600D02*
X034899Y012442D01*
X034269Y012442D01*
X034269Y012600D01*
X034269Y012598D02*
X034899Y012598D01*
X034899Y012009D02*
X034269Y012009D01*
X034899Y012009D02*
X034899Y011851D01*
X034269Y011851D01*
X034269Y012009D01*
X034269Y012007D02*
X034899Y012007D01*
X034899Y011419D02*
X034269Y011419D01*
X034899Y011419D02*
X034899Y011261D01*
X034269Y011261D01*
X034269Y011419D01*
X034269Y011417D02*
X034899Y011417D01*
X034899Y010828D02*
X034269Y010828D01*
X034899Y010828D02*
X034899Y010670D01*
X034269Y010670D01*
X034269Y010828D01*
X034269Y010826D02*
X034899Y010826D01*
X034899Y010237D02*
X034269Y010237D01*
X034899Y010237D02*
X034899Y010079D01*
X034269Y010079D01*
X034269Y010237D01*
X034269Y010235D02*
X034899Y010235D01*
X034899Y009647D02*
X034269Y009647D01*
X034899Y009647D02*
X034899Y009489D01*
X034269Y009489D01*
X034269Y009647D01*
X034269Y009645D02*
X034899Y009645D01*
X033875Y009292D02*
X033875Y008662D01*
X033717Y008662D01*
X033717Y009292D01*
X033875Y009292D01*
X033875Y008818D02*
X033717Y008818D01*
X033717Y008974D02*
X033875Y008974D01*
X033875Y009130D02*
X033717Y009130D01*
X033717Y009286D02*
X033875Y009286D01*
X033285Y009292D02*
X033285Y008662D01*
X033127Y008662D01*
X033127Y009292D01*
X033285Y009292D01*
X033285Y008818D02*
X033127Y008818D01*
X033127Y008974D02*
X033285Y008974D01*
X033285Y009130D02*
X033127Y009130D01*
X033127Y009286D02*
X033285Y009286D01*
X032694Y009292D02*
X032694Y008662D01*
X032536Y008662D01*
X032536Y009292D01*
X032694Y009292D01*
X032694Y008818D02*
X032536Y008818D01*
X032536Y008974D02*
X032694Y008974D01*
X032694Y009130D02*
X032536Y009130D01*
X032536Y009286D02*
X032694Y009286D01*
X032104Y009292D02*
X032104Y008662D01*
X031946Y008662D01*
X031946Y009292D01*
X032104Y009292D01*
X032104Y008818D02*
X031946Y008818D01*
X031946Y008974D02*
X032104Y008974D01*
X032104Y009130D02*
X031946Y009130D01*
X031946Y009286D02*
X032104Y009286D01*
X031513Y009292D02*
X031513Y008662D01*
X031355Y008662D01*
X031355Y009292D01*
X031513Y009292D01*
X031513Y008818D02*
X031355Y008818D01*
X031355Y008974D02*
X031513Y008974D01*
X031513Y009130D02*
X031355Y009130D01*
X031355Y009286D02*
X031513Y009286D01*
X030923Y009292D02*
X030923Y008662D01*
X030765Y008662D01*
X030765Y009292D01*
X030923Y009292D01*
X030923Y008818D02*
X030765Y008818D01*
X030765Y008974D02*
X030923Y008974D01*
X030923Y009130D02*
X030765Y009130D01*
X030765Y009286D02*
X030923Y009286D01*
X030332Y009292D02*
X030332Y008662D01*
X030174Y008662D01*
X030174Y009292D01*
X030332Y009292D01*
X030332Y008818D02*
X030174Y008818D01*
X030174Y008974D02*
X030332Y008974D01*
X030332Y009130D02*
X030174Y009130D01*
X030174Y009286D02*
X030332Y009286D01*
X029741Y009292D02*
X029741Y008662D01*
X029583Y008662D01*
X029583Y009292D01*
X029741Y009292D01*
X029741Y008818D02*
X029583Y008818D01*
X029583Y008974D02*
X029741Y008974D01*
X029741Y009130D02*
X029583Y009130D01*
X029583Y009286D02*
X029741Y009286D01*
X029151Y009292D02*
X029151Y008662D01*
X028993Y008662D01*
X028993Y009292D01*
X029151Y009292D01*
X029151Y008818D02*
X028993Y008818D01*
X028993Y008974D02*
X029151Y008974D01*
X029151Y009130D02*
X028993Y009130D01*
X028993Y009286D02*
X029151Y009286D01*
X028560Y009292D02*
X028560Y008662D01*
X028402Y008662D01*
X028402Y009292D01*
X028560Y009292D01*
X028560Y008818D02*
X028402Y008818D01*
X028402Y008974D02*
X028560Y008974D01*
X028560Y009130D02*
X028402Y009130D01*
X028402Y009286D02*
X028560Y009286D01*
X027970Y009292D02*
X027970Y008662D01*
X027812Y008662D01*
X027812Y009292D01*
X027970Y009292D01*
X027970Y008818D02*
X027812Y008818D01*
X027812Y008974D02*
X027970Y008974D01*
X027970Y009130D02*
X027812Y009130D01*
X027812Y009286D02*
X027970Y009286D01*
X027379Y009292D02*
X027379Y008662D01*
X027221Y008662D01*
X027221Y009292D01*
X027379Y009292D01*
X027379Y008818D02*
X027221Y008818D01*
X027221Y008974D02*
X027379Y008974D01*
X027379Y009130D02*
X027221Y009130D01*
X027221Y009286D02*
X027379Y009286D01*
X026789Y009292D02*
X026789Y008662D01*
X026631Y008662D01*
X026631Y009292D01*
X026789Y009292D01*
X026789Y008818D02*
X026631Y008818D01*
X026631Y008974D02*
X026789Y008974D01*
X026789Y009130D02*
X026631Y009130D01*
X026631Y009286D02*
X026789Y009286D01*
D23*
X033905Y015946D03*
X034397Y015946D03*
X034889Y015946D03*
X035381Y015946D03*
X035381Y016812D03*
X034889Y016812D03*
X034397Y016812D03*
X033905Y016812D03*
D24*
X013322Y016627D03*
X013322Y016127D03*
X013322Y015627D03*
X013322Y015127D03*
X011062Y015127D03*
X011062Y015627D03*
X011062Y016127D03*
X011062Y016627D03*
D25*
X012192Y015877D03*
D26*
X011099Y014352D03*
X010105Y014362D03*
X010105Y013062D03*
X011099Y013052D03*
D27*
X014800Y013446D03*
X017714Y013446D03*
D28*
X012310Y017639D03*
X012310Y020552D03*
D29*
X033609Y018915D03*
X033609Y018115D03*
D30*
X033954Y021881D03*
X033206Y021881D03*
X033580Y022747D03*
X030095Y021595D03*
X029347Y021595D03*
X029721Y022462D03*
X023137Y021920D03*
X022389Y021920D03*
X022763Y021054D03*
X013176Y022491D03*
X012428Y022491D03*
X012802Y021625D03*
D31*
X017094Y016706D03*
X017094Y016206D03*
X017094Y015706D03*
X017094Y015206D03*
X019141Y015206D03*
X019141Y015706D03*
X019141Y016206D03*
X019141Y016706D03*
X015588Y008802D03*
X015588Y008302D03*
X015588Y007802D03*
X015588Y007302D03*
X013540Y007302D03*
X013540Y007802D03*
X013540Y008302D03*
X013540Y008802D03*
D32*
X015745Y009686D03*
X015745Y010886D03*
X015588Y006457D03*
X015588Y005257D03*
X029958Y018240D03*
X029958Y019440D03*
D33*
X013629Y004223D03*
X009298Y004223D03*
D34*
X008845Y003082D03*
X009751Y003082D03*
X013176Y003082D03*
X014082Y003082D03*
D35*
X012054Y008170D03*
X012054Y009952D03*
X009397Y009952D03*
X009397Y008170D03*
D36*
X011424Y021620D03*
X011936Y021620D03*
X011680Y022299D03*
X024446Y017280D03*
X024958Y017280D03*
X024702Y017959D03*
D37*
X010660Y023682D03*
X010651Y022078D03*
X008950Y022078D03*
X008960Y023682D03*
D38*
X037241Y005680D03*
X037241Y003023D03*
D39*
X036444Y003525D03*
X036444Y005178D03*
D40*
X019879Y021384D03*
X019879Y021984D03*
X008580Y019504D03*
X008580Y018904D03*
D41*
G36*
X029259Y015192D02*
X029037Y014970D01*
X028815Y015192D01*
X029037Y015414D01*
X029259Y015192D01*
G37*
G36*
X029683Y015617D02*
X029461Y015395D01*
X029239Y015617D01*
X029461Y015839D01*
X029683Y015617D01*
G37*
D42*
X028734Y016034D03*
X027934Y016034D03*
D43*
X027125Y019410D03*
X026625Y019410D03*
X026125Y019410D03*
X025625Y019410D03*
X025625Y021458D03*
X026125Y021458D03*
X026625Y021458D03*
X027125Y021458D03*
D44*
X028732Y018653D03*
X028732Y018141D03*
X028053Y018397D03*
D45*
X034672Y019627D03*
X034672Y020375D03*
X035538Y020001D03*
D46*
X015232Y017639D03*
X014132Y017639D03*
M02*
