%
M48
M72
T01C0.0118
T02C0.0130
T03C0.0157
T04C0.0197
T05C0.0315
T06C0.0320
T07C0.0354
T08C0.0394
T09C0.0400
T10C0.0630
T11C0.1142
%
T01
X3747Y3219
X4869Y3219
X6365Y3219
X7487Y3219
X6739Y9204
X5243Y9204
X3747Y9204
X3747Y8082
X3747Y6960
X8609Y11822
X9338Y13200
X10430Y12137
X11631Y12334
X11631Y11940
X13501Y12353
X13895Y12550
X16001Y15119
X15479Y16497
X15873Y17255
X16621Y17983
X15873Y19027
X17399Y19499
X17340Y20070
X18235Y20031
X18245Y19056
X19731Y20031
X21651Y21910
X22172Y20936
X24101Y22432
X24761Y23751
X29554Y20424
X30401Y21034
X30617Y20552
X30971Y20414
X32458Y17747
X32822Y17944
X32999Y16615
X32920Y15562
X33540Y15503
X35164Y15336
X35066Y14538
X36188Y15286
X35322Y17531
X34800Y17560
X34190Y17599
X35440Y18603
X35912Y18928
X35912Y20798
X35401Y20808
X34790Y22668
X36936Y24263
X31050Y15562
X30302Y15562
X26090Y16034
X24968Y16034
X23471Y16034
X23353Y17196
X22979Y18318
X22271Y15562
X21523Y15562
X20775Y15562
X19308Y14627
X18806Y13761
X18806Y12383
X18038Y12166
X18412Y11261
X17212Y11074
X17586Y9578
X19830Y11448
X20469Y12816
X20469Y13249
X21975Y11920
X22723Y12294
X22723Y11172
X20204Y9578
X21985Y6359
X23324Y6723
X23983Y7747
X24406Y7865
X25351Y7403
X25214Y6635
X25834Y6448
X25745Y6044
X25410Y5316
X24623Y5592
X26592Y5503
X27714Y6999
X28806Y5464
X29505Y6527
X26277Y8456
X21326Y3219
X15716Y3219
X14968Y3219
X15716Y4342
X9308Y14991
X10686Y17235
X13924Y20680
X12349Y21379
X13973Y23613
X17861Y24145
X18983Y24145
X18265Y17275
X17920Y16615
X17910Y16192
X17901Y15700
X14072Y16143
X6739Y15936
X5243Y15936
X3747Y15936
X3747Y17058
X3747Y24164
X7802Y24253
X33816Y8082
X34692Y8928
X35381Y8485
X35420Y8987
X35420Y6694
X36877Y6349
X36513Y3111
T02
X22271Y16133
X21523Y16133
X20775Y16133
T03
X12753Y23151
X22881Y14981
X24781Y15099
T04
X21011Y12403
X22094Y8062
X27773Y7983
X30686Y17501
X34475Y21891
T05
X4141Y22688
X5322Y20798
X10401Y6733
X12290Y5985
X10401Y4450
X12290Y3308
T06
X14704Y23534
X15704Y23534
X20019Y23534
X21019Y23534
T07
X23038Y24027
X23905Y24027
X26684Y23928
X27684Y23928
X28684Y23928
X29812Y23918
X30812Y23918
X31812Y23918
X32812Y23918
X33812Y23918
X34812Y23918
X35812Y23918
X36818Y22058
X36818Y21271
X36818Y20483
X36818Y19696
X36818Y18908
X36818Y18121
X36818Y17334
X36818Y16546
X36818Y15759
X36818Y14971
X36818Y14184
X36818Y13397
X36818Y12609
X36818Y11822
X36818Y11034
X36818Y10247
X36818Y9460
X36818Y8672
X36818Y7885
X36818Y7097
X36946Y4784
X36946Y3918
X7684Y7097
X7684Y7885
X7684Y8672
X7684Y9460
X7684Y10247
X7684Y11034
X7684Y11822
X7684Y12609
X7684Y13397
X7684Y14184
X7684Y14971
X7684Y15759
X7684Y16546
X7684Y17334
X7684Y18121
X7684Y18908
X7684Y19696
X7684Y20483
X7684Y21271
X7684Y22058
X12694Y11891
T08
X23676Y3637
X23676Y4637
X24676Y4637
X24676Y3637
X25676Y3637
X25676Y4637
X26676Y4637
X27676Y4637
X27676Y3637
X26676Y3637
X28676Y3637
X28676Y4637
X29676Y4637
X30676Y4637
X30676Y5637
X30676Y6637
X31676Y6637
X32676Y6637
X33676Y6637
X33676Y5637
X32676Y5637
X31676Y5637
X31676Y4637
X32676Y4637
X33676Y4637
X33676Y3637
X32676Y3637
X31676Y3637
X30676Y3637
X29676Y3637
X34676Y3637
X34676Y4637
X35676Y4637
X35676Y3637
X25676Y22637
X25676Y23637
X6503Y22688
T09
X5834Y17932
X5834Y16932
X7633Y4440
X6633Y4440
X5074Y4440
X4074Y4440
X17735Y21960
X18735Y21960
X21495Y5227
X22495Y5227
T10
X11345Y5906
X11345Y3544
T11
X5135Y7471
X26582Y17521
M30
